<svg xmlns="http://www.w3.org/2000/svg" viewBox="0 0 1920 1080"><defs><style>.cls-1,.cls-2{fill:none;}.cls-1{stroke:#d9eded;stroke-linecap:round;stroke-linejoin:round;stroke-width:3px;}.cls-2,.cls-3{stroke:#000;stroke-miterlimit:10;}.cls-3{fill:#fff;}</style></defs><g id="Layer_3" data-name="Layer 3"><path class="cls-1" d="M-.18,1S2.38-.54,2.4-.5c.14.23-4.71,7.94-4.62,8.11S10.59-.16,10.75.12.66,11.28.82,11.55,17.57,1.19,17.87,1.7-.55,17.63-.21,18.22C.25,19,34.54-3,35-2.12,35.61-1.1-4.72,25-4.19,25.94s44.33-27.09,45-26C41.33.92-.36,27.31.36,28.57S45.18.78,46,2.21c.6,1-45.23,30.1-44.53,31.31C2.28,34.91,58-.85,58.75.45S2.55,36.94,3.54,38.65,65.75.7,66.63,2.23-2.32,44.89-1.15,46.92C.12,49.12,83-3.88,84-2.21,85.25.05-.28,49,1,51.2S90.22-3,91.36-1C93,1.88-4.37,56.63-2.95,59.07-1.37,61.81,101.54-4.63,103-2.1,104.21,0,1.69,59,3.12,61.51,4.43,63.78,108.89-3.61,110.65-.57S-1.49,66,.38,69.25C1.89,71.86,114.78,0,116.17,2.4S-4.71,74.18-3.2,76.8c1.7,2.94,134.88-82.65,137-79.06S-.74,75.83,1.55,79.79C3.64,83.4,137.17-3.11,139.16.34,141.27,4-3.59,83.16-1.3,87.12.59,90.4,151.17-5.38,153.11-2,155.6,2.29-5.71,89.91-3.2,94.25c2,3.51,161.48-97.58,163.36-94.32C162.7,4.32,2.07,92.73,4.07,96.21S163.61-2.2,166.34,2.52C168.85,6.88-6,102.9-4,106.38-1.31,111,181.06-5.47,183.22-1.72c2.6,4.51-182.1,104-179.15,109.07C6.3,111.21,182.69-2.59,185.64,2.52,188.2,7-4.38,112.37-1.79,116.85c2.88,5,197.9-120.4,200.55-115.79S1.59,114.83,4.3,119.52C7.4,124.89,208.39-4,210.86.26,213.52,4.87.55,121.33,3,125.59,5.8,130.42,219.58-5.44,222.17-.95,225.56,4.92,1.31,126.4,3.88,130.85,7.32,136.82,226.6-6.42,230.36.09,234.27,6.86.42,130.61,3.64,136.19S232.83-5.25,236.78,1.59C240.1,7.34,1,136.25,3.94,141.26,7.06,146.67,248.81-8.07,252.26-2.1S-8.33,144.6-4.14,151.84C-1,157.35,256.15-6.57,259.67-.47,263.64,6.42-7.85,150-3.43,157.67S268.07-6.43,271.25-.92-1,154.17,2.36,160.05,275.15-8.43,279.9-.19C283.49,6-.28,157.77,3.93,165.05,7.48,171.21,284.94-5.22,288.42.8,292.24,7.43-1.41,163.94,2.71,171.07,6.63,177.85,291.34-7,296.31,1.56,301.16,10-.23,167.8,4.35,175.74,8.53,183,306.1-7.24,309.9-.66c4.56,7.89-319,177.3-313.69,186.47C.43,193.11,309.33-7.43,314.73,1.91,318.59,8.6-4.49,179.17.83,188.39,5,195.67,324.26-8,328.46-.77,332.85,6.85-3.76,187.09.37,194.25c5.78,10,330.14-204,336-194C341.93,10-9.47,193.1-3.79,202.94S343.23-11,349.1-.8C354.67,8.86-6.84,197.63-1.07,207.63,4.09,216.55,354.24-9.5,359.43-.51,365.5,10-6.22,206.31-1.95,213.7c5.5,9.54,359.77-222.21,366-211.34C369.72,12.12-3.2,209,1.54,217.23,7.48,227.53,375.2-12.67,381.34-2S-1.41,212.68,3.64,221.43C9.28,231.2,385.05-12.76,391.1-2.27,396.1,6.38-7.11,220.67-1.51,230.36,4.84,241.37,390.17-11,396.77.41,403.59,12.23-5.41,222.07,1.47,234,7.74,244.84,397.9-7.44,403.34,2c6,10.43-410.76,227.35-404.07,239C4.86,250.6,413.15-11.83,419.13-1.48,425.58,9.69-4,233.09,2.84,245c5.54,9.61,421.59-258.21,428-247.11C436.75,8.11-4,238.19,3,250.39,8.35,259.65,426.79-9,433.17,2c5.25,9.1-436.25,241-429,253.54S440.7-9.29,446.26.34C452.08,10.43-6.51,253.92-.57,264.2,5.73,275.12,449.1-11.87,456.22.47,461.83,10.19-7.46,259.42-1.35,270,4.25,279.7,461.07-13.6,468.26-1.13,473.77,8.4-6.29,263,.54,274.8,6.07,284.36,473-13.12,479.59-1.78,485.9,9.16-2.25,268.3,3.65,278.51,10,289.49,480.37-12.86,487.36-.76,493,9-4.41,269.45,3.89,283.84,11.15,296.41,492.34-12.4,498.5-1.73,505.7,10.74-9.52,282.63-3.13,293.7,3,304.38,501.34-12.44,507.79-1.28c8.1,14-520.2,285.62-511.3,301C4.28,313.25,509.62-14.92,517.59-1.11,523.93,9.87-3,287.68,4.36,300.47,10.65,311.37,517.82-12.79,525.1-.18,531.28,10.52-5.59,294,2.3,307.71,11.32,323.33,529-11.16,535.41-.08,543.42,13.8-11,303-3,316.84S537.2-14.95,545.82,0C553.45,13.2-6.38,305.28,2.06,319.89,9.07,332,549.77-16,558.29-1.25S-11.51,314.19-2.95,329C5.86,344.27,557.13-16.68,566.79.07,574.17,12.84-7.86,320.25-.56,332.9,7.66,347.13,566.62-13.22,574.7.78,582.41,14.12-3,324.66,3.73,336.33,13,352.44,579.45-13.5,587-.42,594.47,12.51-8.23,331.85-.71,344.87,7.75,359.52,590.7-14.75,598.57-1.13S-11.51,336.65-2.51,352.24C5.19,365.57,600.32-13.67,608.06-.27c8.13,14.09-620.12,341-610.44,357.82C7,373.7,606.83-11.51,614.34,1.49c8.79,15.23-625,345.28-615.59,361.6C6.43,376.39,618-12.64,625.85,1,635.92,18.46-9.2,356.39-1.61,369.54c10.48,18.14,636.41-385,644-371.83,10.37,18-653.88,361.82-644.74,377.64,10,17.27,640.46-394.21,651-375.88C660,19-14.21,364.51-4.23,381.8,6.16,399.8,647.61-16.69,657.2-.07,667.34,17.5-7.67,369.27,1.27,384.75,9.9,399.71,656.8-19.31,667.88-.12,676.1,14.12-13.49,376.06-3.67,393.08,5.14,408.34,667.85-14.69,676.54.36c9.06,15.7-686.91,381.44-678,396.79C8.34,414.21,679-17.26,688.3-1.11,696.36,12.85-7.9,382.8,2.46,400.74,11.06,415.64,688.53-14.11,696.65,0,706.34,16.74-9,385.85,2.76,406.29,11.42,421.29,694.88-18.18,705.65.48,715.86,18.17-13.52,399.79-4.11,416.09,4.9,431.7,703-13.62,712.26,2.5,724.4,23.53-6,401.91,3.19,417.84,12.82,434.52,715.25-18.33,726.11.47,737.24,19.76-7.06,405.46,3.47,423.69c12.16,21.06,719.44-440,730.12-421.54C745.62,23-9.66,416.06-.55,431.83,8.28,447.14,737.29-17.38,747.34,0,758.13,18.72-13.84,417.9-2.15,438.16c8.79,15.23,753-456.82,762.56-440.27C769.83,14.21-7.71,425.63,1.83,442.16,14.13,463.47,759.62-18.35,769.58-1.1,782.3,20.93-9.71,427.06,2.21,447.71c9.18,15.9,764.57-470,776.95-448.57S-8.59,431.44,3.66,452.66C16.56,475,778-24.17,790.91-1.86,801.67,16.78-15.08,444.05-4.15,463,6,480.55,784.33-19.45,796.11,1,807.08,20-11,448.81-.74,466.51,12.86,490.07,800.18-20.77,810.94-2.12,823.31,19.3-17.53,450.54-4.16,473.69,6.37,491.92,802.47-21.39,815.19.64c11.59,20.07-828.93,458.47-817.65,478C7.15,495.3,816.94-26.41,830.79-2.42,845.15,22.46-15.44,458.41-1,483.35,9.57,501.72,828.13-21.42,839.4-1.88,852.89,21.47-18.51,466-4.13,490.93c14.18,24.55,841.75-510.08,852.18-492C859.65,19-16.28,474.21-3.47,496.4,7.64,515.65,844-17.51,854.68,1,869.33,26.31-14.27,484.66-3.92,502.6,9.63,526.06,856.62-18.34,867.06-.26,878.12,18.89-13.76,484-1,506.16,13,530.42,861.85-25.8,876.48-.45,886.89,17.58-15.41,486.38-.73,511.81,10.91,532,872.63-26.36,887.32-.91,900,21.11-6.33,496.24,4.13,514.36,14.74,532.74,883.93-23.27,896.78-1,911.06,23.73-13.89,496,1,521.79,15.45,546.8,893.82-17.89,904.3.27c12.46,21.58-914,504-901.22,526.19C17.46,551.36,902.55-21,914.73.11,927.94,23-10.14,511.16,2.21,532.56,16,556.41,908.73-18,920.52,2.38c13.93,24.13-935.21,520.33-924,539.7C9.07,563.86,924.88-23.82,937.83-1.4,952.52,24.05-10.32,518.76,4,543.55,19.94,571.16,932.75-28.13,948.1-1.54,960,19-15.18,535-4,554.28,9.78,578.21,938.43-27,954.53.86,967.47,23.27-18.59,533.6-3.5,559.74,8,579.61,946.71-27,963.22,1.61,974.55,21.24-12.93,542.78-.64,564.07,10.8,583.87,963.67-25.33,977.81-.84,993.21,25.84-14.14,539.57,2.52,568.42,16.65,592.89,973.62-19.31,985.34,1,999,24.71-17.7,552.94-3.33,577.83,12.75,605.68,982.28-25.91,997.3.12,1009.08,20.51-12.15,558.33,1.22,581.49c15.36,26.6,991.46-606.92,1006.4-581C1021.05,23.69-14.55,564.36-.9,588,15.12,615.76,1001.73-30.1,1018.72-.68,1032,22.23-17.35,571.78-3.74,595.35,10.32,619.7,1013.73-30.47,1030.35-1.68,1048.07,29-10,571.8,4.16,596.28c15.3,26.52,1016.25-623,1032-595.8C1050.38,25.15-13.8,576.67,1.82,603.71,18.89,633.28,1033.63-33.72,1051.69-2.43c14.45,25-1064,585.09-1049,611.11C15.08,630.14,1045.59-24.3,1059-1.16,1072.08,21.59-16.27,594.93-3.33,617.35,9.18,639,1053-24,1066.63-.39,1083.83,29.41-21.87,590.82-3.48,622.69,12.81,650.9,1059.08-25.29,1074,.59,1088.09,25-14.75,592.1,3.83,624.28c16.53,28.62,1064-644.26,1077-621.8C1093.89,25.15-17.15,603.38-.44,632.31,17.33,663.1,1076.52-26,1092.34,1.39c12.87,22.3-1109,606.68-1092,636.13C19.37,670.45,1090.17-27.42,1105.65-.62c13,22.51-1115.43,618-1101.51,642.12,14.8,25.63,1099.18-669,1114.08-643.22C1134,25.6-12.45,623.5,2.22,648.91,17.27,675,1107.32-32.38,1126.05.07,1143,29.34-13.63,633.48-.25,656.65c17,29.49,1122.87-688.88,1140.44-658.44,16.09,27.86-1154.11,635.16-1138,663C18.82,690.08,1131.29-21.37,1144.58,1.64c19.68,34.08-1164,641.61-1148.29,668.9C10,694.31,1142.26-32,1160-1.31,1173.7,22.45-15.54,644.8,1,673.39,20.2,706.71,1156.29-25.79,1170.21-1.68,1186.28,26.16-19.63,649.39-1.72,680.41,17.4,713.52,1161-25,1175.77.59,1195.47,34.71-19.55,654.76-1.52,686,15.08,714.74,1168.28-32.12,1186.78-.07c17,29.39-1200.53,666.44-1186.35,691C20,724.84,1178.66-35.71,1198.75-.91,1213.17,24.06-21.06,669-3.6,699.2,11.2,724.84,1185.91-31.71,1205,1.4,1223.31,33.07-20,675.87-3.1,705.06,13,733,1201.29-25,1216.33,1,1234.59,32.65-17.94,686.09-3.66,710.81,11.44,737,1209.27-36.26,1229.53-1.17,1250.25,34.72-16.37,679,3,712.49,24.34,749.49,1220.07-33.1,1238.64-.92,1258.85,34.08-19,691-1.55,721.33c19.06,33,1223.74-756.08,1245.2-718.91C1261,32.41-15.55,694,2.37,725,21.62,758.33,1235.4-35.49,1256.44,1,1274.83,32.81-22.23,703.29-4.22,734.47c16,27.69,1255-762.24,1271.34-734C1288,36.71-16.82,711.77-1.12,739c17.78,30.8,1264.32-775.33,1284-741.29C1299,25.69-14.11,712.43,3.11,742.26,23.52,777.62,1274.32-32.51,1292-1.88,1311.55,32-19.41,710.45,2.65,748.66,25.09,787.54,1280.9-31.54,1299.17.11,1319.22,34.83-19.94,730.83-4.09,758.28,14.52,790.5,1288.09-30.44,1306.57,1.57,1325.48,34.31-21.35,727.5-1.38,762.08c21.23,36.79,1297.26-796.81,1318-760.93C1332.86,29.33-23.06,729.36-1,767.52c16.76,29,1308.21-804.7,1329.6-767.65C1350.88,38.52-27.33,734.7-4.23,774.71,15.93,809.62,1321.29-28.13,1337.55,0c17,29.4-1352.7,749.33-1336.66,777.1C16.75,804.61,1332.1-27.46,1347.7-.44,1364.54,28.73-25.86,748-3.93,786,17.37,822.85,1343-32.48,1360.68-1.88,1376.44,25.42-23.83,750.4-.74,790.39,22.94,831.41,1350.19-39,1371.62-1.94S-12.42,766,3.8,794.09C27.61,835.33,1358-27.76,1375.3,2.25,1394.56,35.61-19.69,772.21-2,802.8,14.91,832.14,1367.77-42.8,1391.48-1.75,1408.21,27.24-21.85,768.31.58,807.15,20.38,841.44,1373.74-40.66,1397.56.61,1414,29-19.56,779.08.15,813.22,21.17,849.63,1390.42-34.11,1409.76-.61,1432.59,38.92-22.25,782.5-.77,819.71c24,41.55,1403.13-855.17,1422.65-821.37C1440.07,29.86-20.11,797.16-3.23,826.39c23.68,41,1410.88-855.27,1428.5-824.75C1442.76,31.93-26.28,789.74-2.14,831.55c16.93,29.32,1425.76-866,1444.32-833.88C1466,38.85-17.73,795.53,4.1,833.34,27.82,874.42,1431.61-30.91,1449-.85,1474,42.53-23.37,808.52-3.3,843.28,13.56,872.49,1435.12-28.81,1453.14,2.4,1476,42-20.33,816.73-2.14,848.24,21.06,888.43,1445.71-31.23,1464.57,1.43,1486.84,40-19.8,809.77,3.8,850.64,27.11,891,1456.4-34.25,1476.41.42c19.31,33.44-1499,818.31-1476.09,858C20.65,893.65,1467.05-42.89,1490.65-2c22.93,39.71-1506,831.93-1487,864.7C22.81,895.94,1478.32-40.45,1500.72-1.66,1520,31.81-25.11,834.36-3,872.67,22.16,916.23,1485-34.26,1505.74,1.61,1531.83,46.8-22.78,841.69-2.1,877.49,17.93,912.19,1493-43.65,1518.09-.19,1543.69,44.14-24.59,844.57-2.19,883.37,20.05,921.9,1506.76-36,1527.61.14,1545.58,31.27-28.94,846.87-4.18,889.75,14.13,921.45,1514.42-29.76,1532.93,2.3,1557.49,44.84-27.8,851.64-2.64,895.21,19.07,932.82,1521.94-41.4,1546.36.9,1565.59,34.2-17.64,858.69,4.21,896.53c19,33,1531.91-928.16,1550.84-895.38C1577.09,39.33-18.49,866,3.11,903.4c21.25,36.81,1549.36-939,1568.63-905.65,20.49,35.47-1595,868.51-1570,911.91C27.27,953.81,1559.82-39.4,1581.26-2.25,1604.09,37.29-21.83,885.73-2.87,918.58,17.23,953.38,1562.18-39.73,1585.87,1.32,1610.09,43.26-24.37,874,2.7,920.85,29.55,967.35,1573.3-35,1594.57,1.79,1619.32,44.65-17.77,889,3.5,925.81,23.55,960.55,1591-34.92,1610.14-1.78,1635.47,42.1-19.52,894.35,2.27,932.09c21,36.4,1589.88-980.68,1617.05-933.61C1641.07,36.15-24.53,890,3.09,937.8,26.41,978.19,1606.5-41.73,1629.8-1.37c23,39.93-1652.48,908.68-1630.33,947C24.59,989.19,1608.31-47.69,1636.24.68,1656,35-20.95,905.87,3.7,948.56,30.88,995.64,1620-49.14,1647.94-.74,1672.36,41.56-30.74,908.82-2.37,958,25.08,1005.51,1625.05-46.39,1653.09,2.18,1681.38,51.19-17.75,925.62,2.81,961.25,29.28,1007.08,1651.63-35.94,1671.22-2,1691.05,32.34-27.06,923.47-.65,969.22,25.4,1014.34,1653.82-35.88,1675.42,1.54,1700,44.18-20.53,930.32,3.66,972.21,29.5,1017,1669.07-38.21,1690.25-1.54,1714.23,40-26.73,930.75,1.48,979.61,24.5,1019.49,1677.13-38.1,1698.9-.39c26.73,46.3-1727.41,942.45-1701,988.11C23,1031.26,1680.48-46.43,1707.62.59c22.72,39.34-1734.24,942.16-1706,991C28.44,1038.12,1693.08-52,1722.1-1.75,1746.2,40-24.86,955.05,0,998.07,23.62,1039,1698.67-43.54,1725,2.11,1746.85,39.9-26.74,954.93,1.16,1003.26,27.22,1048.39,1710.53-40.19,1735,2.22c22.62,39.17-1767.61,959-1738.69,1009C23.71,1058.71,1722.43-46.22,1748.8-.54c21.87,37.87-1780,971-1753.08,1017.69C19.89,1059,1731.34-49.44,1759.29-1,1789.45,51.2-18.23,982.4,2.69,1018.63,33,1071.13,1736.17-52.64,1766.67.19,1794.24,47.93-31.36,974.34-1.11,1026.73,22.72,1068,1757.33-41.6,1780.32-1.78c28.2,48.84-1804,998.32-1782.82,1035C19.71,1071.66,1758-48.53,1786.3.44,1807.65,37.42-24.91,992.13.77,1036.62,26.78,1081.67,1774-46.77,1799.78-2,1822.18,36.74-20.78,1000.89,2.53,1041.26,28.27,1085.85,1776.73-42.35,1802.4,2.11,1824.89,41.06-26.2,1001.84.76,1048.55,22.12,1085.54,1791.22-45.14,1817.19-.16s-1844,1015.5-1820,1057C19.8,1096,1795-51.39,1825.39,1.29,1847.7,39.93-24.88,1009.88,3.3,1058.68,27.41,1100.45,1804.91-49.58,1834.4,1.49S-25,1018.5,1.75,1064.93C32.16,1117.6,1816.52-50.74,1845.92.19,1877.65,55.15-23.48,1035.48-1.83,1073,27.28,1123.4,1830.6-37.58,1853.38,1.87,1879.49,47.1-22.53,1032.19,2.79,1076.05,30.67,1124.33,1844.35-38.15,1866.42.09,1894,47.78-26.4,1033.16,2,1082.3,30.92,1132.44,1851.11-37.77,1873.83,1.58,1897.06,41.82-18.86,1032.38,10.58,1083.37,34.83,1125.37,1853.8-55.63,1886.2.48,1908,38.24-8.58,1036.54,18.77,1083.92,50.89,1139.55,1874.67-40.33,1897.51-.78c32,55.49-1895.62,1034.72-1867.15,1084C52.78,1122.08,1883.36-37.13,1905.25.79,1936.71,55.27,14.2,1046,36.8,1085.11,64.72,1133.47,1888.33-51.52,1917.62-.78,1941.12,39.93,24,1043.26,47.7,1084.38,78.39,1137.55,1899.77-40.23,1923.73,1.26,1947.16,41.85,37,1043.45,60.12,1083.55,91.23,1137.43,1894.17-40.57,1922.42,8.36c30.12,52.17-1876.45,1029.85-1851,1074C94.7,1122.62,1894.14-21.12,1916.27,17.21c24.82,43-1862.5,1015-1834.12,1064.14C109,1127.81,1896.85-16.66,1918.62,21.06,1949.37,74.32,70.38,1043.39,92.47,1081.65,124,1136.21,1892.13-22.08,1920.15,26.45c25.06,43.41-1844.8,1010.43-1818.5,1056C128.59,1129.1,1893.24-6.07,1916.68,34.53,1947.34,87.63,82.85,1035,110.6,1083,141.54,1136.61,1896.09-11.49,1923.66,36.26,1947.93,78.3,95.71,1038.93,121,1082.76c28.26,49,1774.43-1084.28,1800.33-1039.43,28.05,48.59-1810,1001-1788.49,1038.27C160.94,1130.24,1895.82,16,1916.51,51.8,1940.05,92.57,113.37,1028,144,1081.12,166.51,1120.07,1894.71,19,1917,57.52,1940.47,98.23,124.14,1041.16,148.86,1084c30,51.94,1749.5-1063.13,1772.48-1023.34,25,43.33-1788.59,979.87-1763.2,1023.85C181.74,1125.37,1894.06,17.1,1922.27,66c29.65,51.35-1777.67,981.55-1755.89,1019.27C190,1126.16,1895.14,39.32,1915.85,75.19,1944.18,124.25,154.5,1046,177,1085c30,52,1717.46-1045.15,1740.66-1005C1946.31,129.66,162,1042,186.76,1084.82,212.32,1129.08,1899,39.2,1923.72,82c23.22,40.21-1747.86,956.18-1722.35,1000.35,24.89,43.12,1698.52-1029.8,1719.8-992.93,20.67,35.79-1738.54,944.54-1710.56,993C233.26,1121.64,1891.07,45.34,1920,95.49c24.5,42.43-1724.79,951.52-1702.93,989.39C245.28,1133.71,1899.48,63.34,1921.22,101c21.6,37.42-1719,944.82-1696,984.66,25,43.36,1673.13-1015.39,1694.52-978.33C1943.23,148,216.65,1045.1,238.91,1083.66,261.84,1123.38,1894.41,72,1918.6,113.89,1947,163.05,223.06,1037.52,249.4,1083.13,276.19,1129.54,1900.36,81,1921.56,117.7,1941.91,153,226.28,1036.33,254.85,1085.82,281.71,1132.34,1893,84.9,1916.87,126.26c27.43,47.51-1671.92,915-1647.44,957.35,19.77,34.24,1620.72-1000.67,1648.84-952,26.54,46-1663.28,916.08-1641.55,953.72,20.38,35.3,1617.2-988.77,1641.05-947.46,26.72,46.28-1646.06,903.43-1623,943.31,24.4,42.25,1608.06-975.54,1628.46-940.19,23.73,41.09-1645.9,906.88-1624.55,943.87C318,1118.36,1895.81,116.44,1915.88,151.19c27.68,47.95-1625.42,892.3-1603.1,931,26.71,46.26,1585.68-973.27,1610.7-929.94,24.78,42.92-1631.36,885.8-1604.66,932,27.22,47.16,1580.08-959.15,1600.39-924,19.51,33.79-1612.72,876.26-1586.3,922C355.47,1121.37,1892.63,126.5,1916.58,168c26.63,46.13-1595.54,878.77-1574.51,915.2S1897.89,141,1916.94,173.93c18.11,31.37-1585.39,867.89-1562.11,908.2C380,1125.81,1897.66,136.3,1921.51,177.61c23.63,40.93-1578,869.81-1557.65,905C383.6,1116.82,1900,142.77,1922.92,182.51,1949.19,228,349,1035.16,375.6,1081.18c21.54,37.3,1524.84-927.08,1545.07-892,23.48,40.67-1558.46,854.28-1536.22,892.8,22.08,38.23,1517.26-924.84,1538.41-888.2,21.54,37.31-1561.57,846.05-1535.25,891.63C410,1124.08,1897,161,1919.89,200.71c21,36.41-1542.05,849.93-1522.26,884.2,19.58,33.91,1506.86-912.25,1525.16-880.56,17.78,30.8-1541.82,837.21-1516.3,881.41C428,1123,1896.14,179.88,1916,214.25c24.29,42.06-1520.74,830.43-1497.69,870.37,23.51,40.71,1477.85-902.42,1499.14-865.53,19.12,33.12-1513.59,822-1488.48,865.53C454.57,1129,1900.06,185,1921.85,222.69c19.09,33.08-1499.62,826.8-1480.36,860.16,19.45,33.69,1451.07-893.43,1475.17-851.69C1935,262.89,427.9,1040,452.48,1082.55c18.77,32.52,1452.53-878.7,1469.89-848.64,23.14,40.09-1485,810.33-1462.18,849.84C477.54,1113.81,1898.48,196,1923.3,239,1945.59,277.62,449.54,1055.5,467,1085.79c18.52,32.08,1432-876.36,1453.49-839.17,22,38.05-1463.95,801.23-1442.38,838.59,24.49,42.41,1419.43-863.72,1438.57-830.56C1937.12,290,468.28,1052.56,487.59,1086c20,34.71,1409.71-861.7,1430.4-825.85,21.14,36.62-1440.74,783.63-1417.2,824.41,18.35,31.78,1400.88-850.78,1419.06-819.29,19.93,34.52-1421.61,782.9-1402.56,815.89,18.6,32.22,1380.16-840,1398.83-807.62,19.43,33.66-1417.3,770.74-1394.09,810.94,22.63,39.2,1380.68-844.07,1401-808.87,20,34.68-1407.11,769-1385.81,805.88,19.79,34.26,1359.85-830,1379.28-796.33C1940,325.8,518.12,1043.57,541.77,1084.53c19.43,33.66,1363-831,1382.06-797.93,16.1,27.87-1396.57,757-1372.87,798.06,16.8,29.1,1347.88-827.3,1369.14-790.48,22.89,39.66-1374,751.75-1353.43,787.35C582.36,1108.7,1906.45,269.84,1923,298.46c18,31.17-1372.18,749.26-1351,785.87,19.49,33.76,1324.61-812.71,1345.37-776.76,16.49,28.57-1355.9,746.66-1337.87,777.88,15.62,27,1314.81-810.52,1337.07-772,18.59,32.2-1340.23,737.81-1322.12,769.19,18.46,32,1311.32-797.53,1328.83-767.2,19.69,34.09-1344.79,735.38-1324.72,770.15,19,32.92,1302.68-801,1323.86-764.33,17.24,29.85-1332.42,726.79-1311.31,763.35,17.45,30.22,1289.46-780.26,1305-753.42,19.61,34-1305.95,724.75-1290.66,751.25C643.33,1113.61,1904,307.36,1920,335c22.24,38.53-1301.56,715.12-1283.3,746.75C658.27,1119.14,1906.52,314,1921.53,340c16,27.63-1299.7,715.36-1282,746C661.27,1123.65,1906.54,314,1924,344.34c15,26.05-1289.89,712.13-1273.1,741.21,20.07,34.76,1252.81-769.83,1273-734.94,18.45,32-1273.29,700.58-1255.67,731.09,21.3,36.9,1235.11-760.39,1255.59-724.92C1941,386.49,659.57,1050.19,677.65,1081.51c15.52,26.88,1220.9-746.42,1238.88-715.27,16.69,28.91-1245.36,688-1229.34,715.74C707,1116.21,1903.43,340.44,1920.46,370c15.92,27.57-1242.13,688.6-1227.3,714.29C711.41,1115.85,1903.57,339,1923.65,373.81c18.71,32.42-1242.39,676.35-1222,711.62C716,1110.3,1907,356.37,1921.35,381.23c18.74,32.46-1221.14,678.29-1207.07,702.66C734.23,1118.45,1902.72,351,1923,386.06c20,34.6-1213.87,670-1198,697.4,16.2,28,1177.47-719.55,1194.68-689.75,16.19,28.05-1203.16,658.81-1185.24,689.84C753.74,1117.1,1898.1,366,1917.89,400.25c17.59,30.47-1186.57,653.94-1170.46,681.85C763.14,1109.31,1903.22,373,1921.32,404.36c17.86,30.93-1181.92,649.31-1165.18,678.31C776.05,1117.14,1901.45,384,1917.68,412.06c17.3,30-1169.25,640.4-1151.57,671,13.64,23.64,1138.7-701.24,1157.67-668.38,16.84,29.16-1167.57,638.48-1149.87,669.14C788.85,1109.7,1904.28,394.92,1920,422.14c14,24.28-1154.79,631.92-1137.06,662.62,19.55,33.85,1117.19-684.29,1134.2-654.84,16,27.65-1134.9,631.26-1121.83,653.91C812.67,1113.89,1904.12,409.22,1919,435.05c13.1,22.69-1128.09,617.56-1111.12,647,19,32.91,1099-673.81,1116-644.32,15.84,27.43-1124.8,611.54-1105.72,644.58,13.92,24.11,1087.37-666.84,1104.27-637.55,17.25,29.87-1114.4,613.38-1098.8,640.4s1085.48-655.88,1098.11-634c13.69,23.71-1103.32,610.2-1089.23,634.6,16.59,28.74,1073.34-658,1089.92-629.27,17.09,29.62-1091.07,593.19-1072.67,625.07,18,31.16,1056.68-650.89,1074.35-620.28C1939.3,487.48,837,1055.41,853.94,1084.75c14,24.21,1049.74-637.72,1063.45-614,15.32,26.53-1063.65,586.54-1049.28,611.43,14,24.3,1039.21-631.26,1052.75-607.8C1935.05,499,857.09,1057.32,873.1,1085c14.13,24.47,1025.94-631.72,1043-602.17C1933.69,513.33,867.35,1060,882.36,1086c17,29.48,1023.83-624.71,1038.38-599.51C1934.89,511,883,1054.79,899,1082.46c14.57,25.23,1005.08-611.8,1018.72-588.16,12.65,21.9-1022.56,562.55-1007.81,588.09,12.73,22.06,996.56-609.17,1011.2-583.82,16.3,28.23-1018.2,555.14-1001.77,583.61,15.73,27.24,984.71-602.74,999.53-577.08S911.6,1063.8,924.08,1085.4c12.07,20.91,983.11-595.68,995.27-574.62C1931.67,532.12,925,1059,938.86,1083.07,954,1109.32,1912.18,493.77,1924,514.29c11.6,20.08-990.3,549.07-977.8,570.73,13.87,24,962.36-583.63,974.49-562.62,12.65,21.91-973.81,533.24-958.6,559.59,14.64,25.36,940.29-579.48,956.14-552,15,26-963.82,524.71-947.67,552.7,13.28,23,936.76-578.08,952.88-550.15,11.21,19.41-958.14,529.39-945.4,551.47,13.23,22.9,930.27-573.71,946.12-546.25C1939.25,563.84,974.84,1066,986,1085.37,1002,1113,1905.38,524.31,1918.49,547c13.77,23.85-931.26,515.71-919.14,536.7,15.09,26.15,905.52-555.37,919.63-530.95,11.79,20.43-925,503.89-909.31,531.06,13.29,23,894.05-547.72,907.71-524.06,12,20.86-907.35,500.24-894.51,522.48,11.25,19.49,884.72-544.36,899.26-519.19,13.16,22.8-903.81,502.27-893,521.06,10.66,18.47,875.19-536.14,888.55-513,11.87,20.56-893.91,492.32-880.87,514.91,14.5,25.11,870.14-529.57,881.92-509.17,11.07,19.18-876.63,482.25-863.59,504.83,10.79,18.7,858.19-519.13,868.44-501.39,11.48,19.89-874.83,480-861.28,503.47,10.77,18.64,845.37-514.17,856.67-494.6,14.2,24.59-860.68,475.31-848.79,495.9,11.38,19.71,838.19-512.17,850.42-491,13.5,23.38-851.56,473.74-841.17,491.74,14,24.15,825.06-509,839.2-484.51,13.72,23.76-838.63,466.14-828.18,484.25,14,24.23,815.69-493.34,825.39-476.54,11.3,19.58-819.23,451.89-807.41,472.36,9.71,16.82,801.66-487.61,812.39-469,12.52,21.69-818.21,456.73-808.82,473,11.38,19.7,799.22-485.43,809.61-467.43,12.22,21.18-804.93,445.57-794.29,464,13.53,23.44,784.11-479.23,795.6-459.34,13.47,23.34-800,438.68-787.54,460.34,11,19.06,772.68-470,783-452.08,12.67,21.93-788.22,430.51-774.92,453.55,12.2,21.12,765.56-471.15,778.18-449.29,12.49,21.64-781.3,429.8-769.77,449.77,12.17,21.09,759.67-459.66,768.79-443.86,12.51,21.66-764,425.35-754.88,441.15C1175.53,1098.92,1914.07,629.5,1923,645c10.14,17.55-763.36,423.63-753.47,440.76,11.31,19.58,735.05-453.64,747.72-431.69,9.16,15.87-746.4,410-734.81,430,10.89,18.86,727.05-442.42,736.86-425.42,10.46,18.12-737.82,404.26-725.68,425.3,9.15,15.83,719.13-436.6,728.4-420.54,10.4,18-732.47,402.11-721.22,421.59,8.47,14.67,704-431.78,715-412.79,11.75,20.35-710.31,392-699.94,409.91,8.38,14.52,694.47-428.51,706.4-407.84,11.47,19.86-707.33,393.34-698.34,408.9,8.28,14.34,687.87-418.24,697-402.42,10,17.3-694.08,385.35-685.16,400.8,10.78,18.67,675.12-415.41,686.22-396.19,9.58,16.6-690.38,383.1-681.11,399.17,9.44,16.35,666.32-406.48,675.75-390.14,9.84,17-678.4,374.63-668.64,391.55,11.53,20,659.61-406.89,670.89-387.34,10,17.31-667.8,365.61-656.91,384.48,9.25,16,648-393.23,656.29-378.91,9,15.58-655.4,358.93-644.36,378,9.38,16.25,637.92-389.12,646.93-373.51,10.65,18.44-649.29,361.34-641.14,375.45,8.78,15.21,632.61-386.5,641.82-370.55,8.33,14.43-645.32,352.83-634.49,371.59,10.14,17.57,621.94-380.4,631.17-364.4,9.86,17.07-625.39,346.69-616.83,361.51,8.77,15.19,609.61-371,617.84-356.7,10.24,17.72-619.37,345.24-611.43,359,8.64,15,601.85-369,611.16-352.86,9.88,17.11-610.63,334.21-600.38,352,8.1,14,591.51-358.39,598.82-345.73,7,12.11-595,329.84-586.74,344.14,10,17.25,582.83-355.54,591.07-341.26,8.14,14.09-596.14,329.48-587.51,344.43,7,12.1,578.29-351.15,585.77-338.19,8.49,14.7-582.66,324.55-574.93,337.94,8.39,14.53,570.94-345.76,577.92-333.66,7.61,13.18-574.55,320.31-566.86,333.62,8.13,14.09,556.87-341.11,565.36-326.41,9.23,16-563.68,311.82-555.24,326.43s548.4-337.57,557.47-321.86c8.55,14.81-554.12,306-545.56,320.82,6.87,11.89,535.18-330.38,544.44-314.34,6.62,11.45-539.5,300.72-532.12,313.5,8.21,14.21,526-319.19,532.71-307.56,8.72,15.1-535.73,294.58-527,309.68,7.83,13.56,518.62-318.23,526.76-304.13,6.14,10.64-525.08,291.65-517.66,304.51,6.08,10.53,509.5-312.57,517.47-298.77,7,12.09-508.73,284.8-502.49,295.6,8.48,14.69,489.37-297.67,495.92-286.32,6.8,11.78-492.95,277.71-487.26,287.55,6.82,11.83,484.4-293.33,490.32-283.09,6.64,11.51-488.27,269.92-480.55,283.31,5.56,9.62,469.76-288.54,477.26-275.55s-471.09,261.25-464.15,273.26c5.92,10.25,461.15-279,466.69-269.44,7.56,13.08-461.91,259.5-456.26,269.29,7.4,12.81,450.4-272.83,455.94-263.23,7.18,12.43-452.82,251-445.78,263.18,5.56,9.64,442-269.77,448.35-258.85,5.35,9.27-445.07,249.95-439.78,259.12,6.18,10.69,434.65-268.54,442.27-255.34,6.72,11.64-440.86,246.23-435,256.38,5.06,8.77,422.71-258.11,428.8-247.57,6.83,11.83-426,236-419.28,247.64,5.58,9.65,411.28-253.5,418.23-241.47,7,12.22-414.37,231.84-408.75,241.59,5.44,9.42,407.88-251.93,415-239.6,4.81,8.33-409.91,230.45-404.62,239.62,5.65,9.79,398.25-244.33,404.48-233.53,5.4,9.35-406.23,224.45-399.34,236.39,5.61,9.72,392.76-239.1,398.11-229.84,6,10.38-386.31,214.69-380.28,225.14,5,8.73,371.89-227.08,377.24-217.8,6,10.47-373.9,211.62-369.55,219.14s363-223.47,369-213.06c5.1,8.83-369.33,206.29-364,215.51,5.8,10,360.06-219.8,365.22-210.87,5.67,9.83-354.66,199.46-349.83,207.82S1913.29,871.36,1918.26,880c5.36,9.28-347.6,192.89-341.86,202.83,4.87,8.42,337.39-205.94,342.22-197.58,4.26,7.39-344,191-338.43,200.67,4.25,7.36,332.48-201.49,336.61-194.34,3.79,6.57-330,185.23-325.32,193.34,5.21,9,320-196.49,325.09-187.69,4.9,8.49-320.41,180.62-316,188.16,4.07,7.06,313.25-190,317.22-183.15s-311.33,173.44-306.32,182.12c4.08,7.07,304.21-187.18,309.21-178.52,4.31,7.47-304.47,170.07-299.53,178.62,4.17,7.22,298-182.9,302.68-174.75,3.52,6.1-296.67,166.28-291.93,174.48,5,8.58,280.1-172.55,284.79-164.43,3.44,6-279.86,156.94-275.56,164.39,4.15,7.19,274.26-169.09,278.91-161,4.1,7.09-272.68,156.06-269.35,161.83,3.56,6.16,263.53-160.71,267.24-154.29,4,6.87-255.44,146.54-252.43,151.75,4.25,7.36,246.17-151.52,250.24-144.47s-247,139.48-243.06,146.39c3.11,5.38,247-149.35,249.93-144.29,3.39,5.87-243.42,139.08-240.16,144.73,3.49,6,231.85-141.29,235.07-135.71,3.82,6.63-229.41,132.08-226.72,136.75,2.86,4.94,230.74-139.73,233.56-134.85s-226.75,128.49-223.17,134.69c2.82,4.89,212.93-130.34,216.14-124.79,3.44,6-207.53,118.25-204.12,124.16,3.29,5.7,202.93-123.55,205.69-118.76,3.09,5.36-192.93,111.48-190.41,115.85,3.1,5.37,187.22-113.28,189.46-109.39,3.26,5.65-188.26,108.33-185.44,113.23,2.39,4.13,185.3-112,187.46-108.23,2.29,4-179.5,103.11-177,107.44,2.31,4,175-106.76,177.5-102.48,2.89,5-167.49,96.51-164.68,101.38,2,3.52,161.09-99.32,163.82-94.59,2.63,4.55-153.86,89.65-151.71,93.38,2.41,4.18,146.59-88.88,148.43-85.69,1.92,3.34-139.45,81.43-137.58,84.67,2.21,3.83,143.56-87.15,145.41-83.95,2.31,4-137,81.34-135.34,84.29,2,3.52,132.9-81.49,135-77.92,1.62,2.81-128.45,75.85-126.52,79.19,1.78,3.08,119.59-73.84,121.66-70.25,1.87,3.25-110.56,65.19-108.79,68.26,1.56,2.7,104.63-64.69,106.48-61.48,1.57,2.72-104.91,63.13-103.43,65.7s109.41-66.25,110.74-63.94c1.72,3-99.92,59.52-98.18,62.54,1.21,2.1,91.66-55.7,92.86-53.61,1.33,2.3-81.09,49.95-80.07,51.71s84-51.73,85.42-49.32-79,48.58-77.76,50.64,71.24-43.94,72.46-41.84c1,1.75-65.84,41.09-64.8,42.89s63.13-38.46,64-37c.65,1.12-53.08,35-52.37,36.27s54.37-32.9,55-31.77c.76,1.33-48.86,32.61-48.23,33.71s44.07-26.76,44.64-25.77c.47.82-34.3,24.78-33.77,25.69s36-22,36.47-21.05c.3.51-18.49,16.13-18.14,16.75s14.5-9,14.77-8.53-10.13,11.32-9.92,11.68,9.86-6.11,10-5.8c.08.14-2.56,6.65-2.46,6.83s4.49-2.66,4.52-2.6"/><polyline class="cls-2" points="0 1080 691.65 680.49 691.65 417.59 691.65 261.28 691.65 109.7 691.65 0"/><polyline class="cls-2" points="691.65 680.61 1567.86 680.61 1920.01 680.61"/><path class="cls-3" d="M366.32,471.65c12.46-10.34,27.26,5.46,64.06,3,16.32-1.1,28.38-5.21,52.31-3,6.75.62,10.13.93,12.81,2,7.07,2.81,22.59,12.84,25.63,72,1.79,35-2.68,50.1-6.41,97-2.08,26.15-2.52,44.5-3.2,73-1.53,63.61,2,66.69,0,122-1.24,33.53-4.27,79-4.27,79s-8.24,11.93-12.81,17c-12.34,13.65-32.91,15.92-42.71,17a94.56,94.56,0,0,1-41.64-5,97.94,97.94,0,0,1-34.16-20c-5.08-4.47-8.18-7.25-10.68-12-5.2-9.9-2.76-18.74-1.07-31,1.84-13.27,1.58-24.52,1.07-47-.4-17.56-2-17.33-3.2-38-1.74-29,1.28-30.56,0-54-1.64-30-6.58-27.69-8.54-60-1-17,.33-17.6-1-50.1-.26-6.57-.77-18.8-1.89-34.87-.75-10.82-1.17-14.58-2.82-35.74-1.53-19.6-2.29-29.47-1.89-33.09,0-.3.19-1.57.45-3.3,1.74-11.62,4.95-20.64,10.86-34.65C362.75,478.84,365.51,472.32,366.32,471.65Z"/><path class="cls-3" d="M369.13,354.13c6.34-10.26,16.63-9.34,30.32-11.88a233.29,233.29,0,0,1,30.25-2.44c9.6.11,19.9,1.15,32.58,1.5,3.28.1,20.05,2.11,26.56,3.47.84.17,6.84,1.94,8,4.05s1.56,6.44,1.36,8c-1.53,12-.4,22.26-1.3,34-.57,7.38-.88,21.4-1,27.68-.18,7.74-.57,26.93-.26,29.46,1.15,9.46,2.42,20.25-2,23.54-5.35,4-15.66-.44-22.52-.36-1.25,0-16.67-.68-21.91,1.41-3.95,1.57-10.43,1.41-15.77,2.27a86.77,86.77,0,0,1-17.68.89,105.45,105.45,0,0,1-17.17-2.6c-4.39-1.27-17.37-4.53-20.14-4.64-5.14-.2-4.58,2.39-7.57.17-3.42-2.53-1.61-5.59-1.66-11.75,0-.37.33-16.24.77-21.53.33-3.93.41-20.88.4-24.94,0-8.54-.66-16.53-.4-23s.07-14.31.19-18.37C370.35,362.7,366.3,358.71,369.13,354.13Z"/><path class="cls-3" d="M346.58,535.86c11.9,3.32,25.84,8,38.21,9.1,15.31,1.3,41.92,2.13,53.63,1.35a209,209,0,0,0,36.81-5.62c18.19-4.11,28-9.84,44.07-16.13"/><path class="cls-3" d="M374.67,580c4.61-5,13.9,1.06,38.18,4.11,8.7,1.09,18.67,2.34,31.72,1.17,13.28-1.19,25.84-3.52,25.84-3.52,13.4-2.49,17-4.19,20-1.76,3.57,2.91,2.12,8.4,1.17,25.84-.44,8.26.69-7.81-.58,22.91-.88,21.27-1.22,24.35-1.76,37.59-.84,20.33-.35,19.88-1.18,37.59-1,20.63-1.5,18.46-1.76,31.13-.44,21-.65,31.56,0,37,.77,6.46,1.49,8.69,0,11.75-3.33,6.84-13,8.17-32.31,10.57-10.76,1.34-20.71,2.51-34.06,1.17-12.57-1.26-9.1-2.83-24.08-4.69-6.7-.83-11.79-1.07-14.1-4.7-2-3.2-.72-7.18,0-10,1.69-6.57,0-5.79-1.76-36.41-.94-16.49-.27-13.76-1.18-29.37-1.07-18.53-1.79-18.57-2.35-32.31-.7-17.49.47-17.18-.58-30.54-1-12.52-2.13-14.26-2.35-25.25-.19-9.5.63-9.91.59-21.74C374,584.33,372.48,582.35,374.67,580Z"/><path class="cls-3" d="M487.09,675.59a6.72,6.72,0,0,0-1.91,2.68,8.58,8.58,0,0,0-.6,2.49c-.25,2.61-2.21,6.21-2.84,7.7-1.58,3.78-.53,7.86.88,12.6,3.65,12.24,4.08,25.27,7,37.71,2.85,12.14,1.39,13.82,3,47.9,1.2,25.26,1.84,20.87,6,79.5,2,28,3,42.07,3,42.8.38,19.21-.65,33.81,5,54,1.77,6.33,2.72,9.72,5,14.27,10.87,21.65,32.22,30.26,39,32.61,11.8,4.1,24.69,2.79,50,0,37.44-4.12,56.68-11.32,64-14.27,7.73-3.11,21.72-9.32,33-22.42,5-5.75,6.92-10,8-13.25,3.51-10.67.53-20-1-26.5-1-4.09-.25-2.35,0-46.88.16-27.95-.18-24.5,0-57.07.12-21.27.28-24.49,0-34.65-.52-19-1.43-20.23-2-38.73-.29-9.34-.19-21,0-43.83,0,0,1-9,.35-33.08,0-.1,0-.25,0-.43,0-.35-.07-.88-.17-1.53,0-.13-.06-.31-.1-.52l-.14-.58a19.39,19.39,0,0,0-2.4-5.15c-.63-.93-27.48-33.51-105-29.34-48.46,2.61-107.79,18.92-107.5,35.07a6.94,6.94,0,0,0,.26,1.69c5.07,18.86,40.92,24.37,101.81,32.66,3,.41,4.52.61,5.43.72,0,0,51.55,5.54,103.07-32.12,0,0,.41-.31,1-.69.86-.61,1.16-.77,1.73-1.21.23-.18.58-.45,1-.81"/><path class="cls-3" d="M545.17,509.44c-1.49-1.85-.41-5.2.43-6.8a7.49,7.49,0,0,1,4.25-3.83c2.09-.6,3.84.22,6.38,1.28,0,0,5.15,2.15,10.2,3.82,3.93,1.3,6.89.72,15.31-.85,9-1.67,17.41-3.25,20.84-3.82,8.86-1.5,15.24-1.58,25.94-1.71a241.44,241.44,0,0,1,28.07,1.28c11.8,1.26,17.69,1.88,24.66,4.68C684.84,504.93,694,509,694,509s-3.12,10.13-8.08,11.05c-1.75.33-2.6-.7-5.53-2.12-3.42-1.67-5-1.63-17-3.41-11.56-1.72-9.55-1.68-13.61-2.12-7.72-.84-7.32-.13-17-.85-9.39-.71-11.12-1.48-14.46,0-.61.27-6,2.76-7.65,8.08-.56,1.84-.35,3,0,6.8.62,6.83-.12,2.55.85,14.89.35,4.41.72,8.49,1.28,13.18,1.13,9.59,1.7,10.61,2.55,11.48,3.83,4,12.28,3.84,12.75,3.83a12.17,12.17,0,0,1,5.11.42,10.57,10.57,0,0,1,5.1,4.26c1.47,2.35,1.59,4.63,1.7,7.22.29,7,.44,10.56.43,12.76,0,4.52.4,9.25,1.27,18.71.77,8.29,1,7.77,1.28,12.76a51.11,51.11,0,0,0,.85,8.93c1.18,5.55,2.71,6.36,2.12,7.66-1.74,3.83-16-1.45-36.57-2.13a162.17,162.17,0,0,0-25.09,1.27c-15.77,2-24.66,3.83-24.66,3.83-9.68,2-16.55,4-18.29,1.28-.7-1.09-.09-2.21.43-4.68,1.13-5.39-.2-7.49-1.28-17-.59-5.27-.69-9-.85-15.73-.23-9.76.38-8.42,0-14.89-.32-5.48-.89-8.75,0-14,.61-3.58,1-5.49,2.55-7.23,1.77-1.92,3.54-2,11.06-4.25,4.88-1.47,7.33-2.22,8.08-3,2.17-2.22,1.69-4.92,1.28-16.16-.26-7-.4-10.64-.43-15.31,0-7.31.22-9.73-.85-14s-1.89-7.63-4.68-9.36C552.31,508.46,547.33,512.11,545.17,509.44Z"/><path class="cls-3" d="M562.37,564.87a59.09,59.09,0,0,0,13.31,4,64.46,64.46,0,0,0,18,.42,72.29,72.29,0,0,0,17.42-3.57c1.39-.48,2.53-.93,3.33-1.25"/><path class="cls-3" d="M883.63,705a111.58,111.58,0,0,0,40.26,8.18c.6,0,1.92,0,3.62,0,3.12-.07,5.72-.25,14.62-1.24,6-.67,9.65-1.13,14.08-2a26.78,26.78,0,0,0,4.17-1.11c3.16-1.15,4.1-2.28,8-4,2.43-1.1,3.64-1.66,4.62-1.62,3.17.13,5.45,3.61,7.55,6.92a48.83,48.83,0,0,1,6.92,20.76,276.31,276.31,0,0,1,1.88,31.46c0,13.91.05,20.87,0,30.82-.07,15.59-.12,27.65,0,41.52.15,16.12.23,24.18.63,35.23.15,3.9.13,17.06.09,43.37,0,6.11-.08,11.93-3.25,18.43-3.49,7.15-8.79,11.13-13.55,14.64a64.51,64.51,0,0,1-29.82,11.92c-10.85,1.24-18.73-.85-29.81-3.79-14.52-3.86-20.69-8.55-22.23-9.76a38.88,38.88,0,0,1-10.3-11.38c-3.19-5.57-3.56-9.91-4.88-28.73-1.29-18.51-1.62-23.85-1.62-23.85-.93-14.88-1.39-22.32-1.63-26-1.6-25.14-1.84-26.18-2.17-35.24-.21-5.92,0-3.86-.54-22.77-.19-7.22-.23-14.46-.54-21.68s-1.25-16.47,0-23.31c.08-.46,1.26-6.84,1.26-6.84s.85-3.75.91-4a239,239,0,0,1,7-23.85C880,713.87,881.58,709.78,883.63,705Z"/><path class="cls-3" d="M959.16,584.77c3.44.8,7.29,2.07,9.64,4.7,2.8,3.13,1.76,6.8,1.41,10.13-.83,7.76,1.93,12.42,2.48,20.47.5,7.29-1.41,15.93-1.31,24.11.08,6.47,1.7,14,1.84,21,.1,5.66-.62,18.16-.7,22.47-.09,4.86,2.57,13.81.38,15.59C958.05,715.36,897,716.46,884,704.76c-1.64-1.48.14-.24-.58-1.76s-.64-2.65-.91-5.07c-.47-4.14.64-9.89.58-14.58a25.13,25.13,0,0,0-.32-3.62c-.32-1.64-.93-3.24-1.35-4.92a44.55,44.55,0,0,1-.85-4.74c-.17-1.37-.28-2.85-.31-4-.1-3.46.25-7.53.3-10.66,0-1.91-.16-5-.24-5.89-.31-3.77-.62-4.43-1-8-.35-3.17-.4-3.55-.69-8.74-.13-2.17-.43-14.29,0-18.47.16-1.4.29-4.34.56-5.64s.49-3,.61-4,.09-2.86.09-3.16c-.06-3.78-.68-9.19,1.27-11.9,3-4.13,7.16-3.17,11.33-3.52"/><path class="cls-3" d="M871,743.44a54.27,54.27,0,0,0,13.47,10.65c1.62.9,6.68,3.57,21.2,6a135.41,135.41,0,0,0,27.5,2.49,132.42,132.42,0,0,0,24.07-2.84c13.9-2.92,18.74-6.19,20.92-7.82a45.59,45.59,0,0,0,10.31-11"/><path class="cls-3" d="M894.32,586.11c-2.08-3.51-1-8.69,1.26-12,1.8-2.56,4.26-3.8,7.55-5a71,71,0,0,1,21.39-4.4c9.31-.45,16-.7,23.9,2.52,4,1.61,8.32,3.47,10.7,8.17.28.57,3.32,6.77.63,11.33-2.48,4.2-10.08,4.54-25.17,5a185.28,185.28,0,0,1-21.39-.63C897.62,589.85,895.39,587.91,894.32,586.11Z"/><path class="cls-3" d="M722.28,664.85c6.31,1,15.36,2.36,26.37,3.32,6.21.54,4.48.22,33.31,1.47,14.63.64,22.37,1,31,.37,1.1-.08,4.85-.39,10.18-.74,6.43-.41,9.64-.62,13.42-.73,10.87-.32,12.41.6,19.43,0a71,71,0,0,0,12.49-2.21"/><path class="cls-3" d="M720.85,701c1.75,7.39,17.74,9.77,24.07,10.71,6.6,1,7.17.26,20.14,1.59,7.13.73,7.9,1,13,1.58,10.36,1.1,14.12.54,29.21.8,14.81.25,13.85.83,25.66.79,2.09,0,10.08-1.32,26.06-4,2-.33,5.38-.93,7.1-3.57,1.35-2.07.78-4,.79-9.12,0-2.14.1-.43.79-10.32.63-9,.33-7.37.79-13.89.58-8.32.94-9.22,0-10.71-1.76-2.79-5.11-3-13.42-4.37-11.31-1.88-7.84-2-18.16-3.57-4.35-.67-11.7-1.78-21.32-2.38-9.45-.59-9.38,0-22.1-.4s-13-1.06-23.29-1.19c-9.21-.11-7,.41-19,.4,0,0-5.74,0-18.55,1.19-4.13.38-6.75.71-8.69,2.78-1.06,1.12-1.38,2.85-1.72,4.13a20,20,0,0,0-.65,5.79c.17,6.76-.72,6.06-.39,14.28.26,6.53.85,8.2.39,13.1S720.47,699.45,720.85,701Z"/><path class="cls-3" d="M723.46,751.57A140.65,140.65,0,0,0,697.6,757c-11.14,3.44-15,6.18-18,9.43a29.32,29.32,0,0,0-7.22,13.47,30.8,30.8,0,0,0-.6,8.75c.77,14.59,2,23,2.41,30.31.38,6.71-.35,4.73-1.21,26.27-.38,9.6-.49,16.66-.6,22.9-.4,23.86.36,23.7,0,42.43-.3,16-1,21.2,0,33s2.41,17.07,4.21,21.56a55.06,55.06,0,0,0,12,18.18c7.43,7.78,14.4,11,27.06,16.84,7.8,3.6,15.26,7,25.86,9.43,8.57,1.93,15.74,2.18,30.07,2.69,5.37.19,13.38.46,24,0,15.92-.68,23.88-1,32.48-4,7.7-2.7,12.92-6.08,22.25-12.12,6.95-4.51,12.53-8.17,18.64-14.82,4.87-5.3,8.44-9.18,10.82-15.49s1.37-9.47,1.21-29c-.11-12.62-.17-18.93.6-27.62.93-10.58,1.88-11.28,3-24.24.4-4.6.41-6,1.21-20.88.38-7.2.77-14.49,1.2-21.55.81-13.47.8-27,2.4-40.42.8-6.58,1.53-10.67,0-16.16-2.13-7.7-7.12-12.45-9.62-14.82a35.9,35.9,0,0,0-15.63-8.75"/><path class="cls-3" d="M671.87,793.87a182.88,182.88,0,0,0,37,16.28c16,5,27.72,6.2,48.25,8.18,21.42,2.06,42.08,3.94,69.19,1a289.87,289.87,0,0,0,41.79-7.64c8.39-2.19,15.49-4.44,20.94-6.31"/><path class="cls-3" d="M672.22,868.81c4.08,1.25,10.18,3.26,17.39,6.23,9.45,3.89,15,7,19,9,11.83,5.84,22,7.23,40.06,9.7,15.22,2.08,26,2.08,43.58,2.08a371.27,371.27,0,0,0,47.1-2.77c10.54-1.32,17.84-2.74,26-5.54a109.44,109.44,0,0,0,19.69-9"/><path class="cls-3" d="M721.62,702.72c-.22.14,0,.84.08,1.17.23.85.39,5.14.7,13.72,0,.75.05,1.3.07,1.78.06,2,.09,3.84.26,10.57l.53,20.44c.11,4.25.46,8.51.34,12.77-.12,3.72-.38,6.28.26,10.22a21.25,21.25,0,0,0,2.17,7.19c.46.85,2.08,3.66,6.49,6.64,3.16,2.15,6,3.07,11.57,4.81,8.85,2.78,13.27,4.17,13.94,4.33,5.38,1.28,9.34,1.71,17,2.53a212.27,212.27,0,0,0,22.55,1.54,146.1,146.1,0,0,0,19.72-.94,117.89,117.89,0,0,0,21.21-4.39,53.22,53.22,0,0,0,14.83-6.78c5-3.41,6.66-5.88,7.32-7,2.06-3.54,2.43-7,2.87-11.15.55-5.28-.23-5.66.07-12.36.26-5.94.9-6.1,1.24-12.81.26-5.09-.12-4.7.12-10.66.18-4.56.46-6.3.84-13.23.44-8.25.2-8.86-.25-9.37-2.63-2.9-8.87,2.16-20.43,3.95-4.07.63-3.09,0-16.58,0-9.59,0-10.08.36-24.86.65-9.33.18-14.1.27-19,.07-6.64-.28-11.88-1-20.58-2-11.69-1.42-10.08-1.71-15.85-2.14h-.15c-7.17-.56-10.76-.82-14.27-1.86s-6.51-2-9.08-4.6C723.67,704.57,722,702.45,721.62,702.72Z"/><path class="cls-3" d="M990.11,632.85c1.62,2.88,9.07,1.5,12.48,1,10.6-1.68,21.46.22,32.18,0,23.17-.48,22.89-.52,25.93-.48,14.88.21,22.31.32,23.54.48,7.15,1,10.94,2.25,13,0,2.3-2.56-1.1-5.95,0-15.85.25-2.29.67-4.3-.48-5.28-1.4-1.19-3.9.11-6.73,1-3.93,1.17-4.66.32-16.81,0-5.49-.15-9.52-.08-14.41,0-7.56.12-8,.34-15.85.48-6.86.12-12.09,0-14.4,0-4.77-.09-8.44-.16-13.45-.48-7.23-.47-10.85-.71-13-1-6.35-.77-8.44-1.48-10.08,0s-1.64,3.61-1.92,8.16c-.17,2.55.12,2.73,0,6.73S989.67,632.08,990.11,632.85Z"/><path class="cls-3" d="M994.31,611.82l-.52,22.73"/><path class="cls-3" d="M998,612.13q-.08,11.18-.17,22.34"/><path class="cls-3" d="M1001.09,612.55q.18,10.58.35,21.15"/><path class="cls-3" d="M1005.27,613v20.46"/><path class="cls-3" d="M1008.74,613.22v20"/><path class="cls-3" d="M1012.22,613.44q-.09,9.84-.17,19.67"/><path class="cls-3" d="M1015.7,632.83V613.44"/><path class="cls-3" d="M1019.7,613.88q-.09,9.72-.17,19.43"/><path class="cls-3" d="M1023.53,614l-.18,19.3"/><path class="cls-3" d="M1026.83,614.09v19.58"/><path class="cls-3" d="M1030.83,614.15v19.66"/><path class="cls-3" d="M1034,614.18q.09,9.75.17,19.49"/><path class="cls-3" d="M1037.61,614.18q.09,9.75.17,19.49"/><path class="cls-3" d="M1041.78,614.14v19.52"/><path class="cls-3" d="M1045.26,614.18l.18,19.41"/><path class="cls-3" d="M1048.91,614.18v19.13"/><path class="cls-3" d="M1052.74,614.09l-.17,19.22"/><path class="cls-3" d="M1055.7,614.09q.25,9.61.52,19.22"/><path class="cls-3" d="M1059.7,614.09q.16,9.61.34,19.24"/><path class="cls-3" d="M1063.52,613.57q-.09,9.73-.17,19.48"/><path class="cls-3" d="M1067.87,613.57v19.74"/><path class="cls-3" d="M1071,613.59v19.72"/><path class="cls-3" d="M1074.65,613.68q.25,9.81.52,19.63"/><path class="cls-3" d="M1078,613.81l.18,19.65"/><path class="cls-3" d="M1082.3,614.05v19.28"/><path class="cls-3" d="M1087.31,614.23V634"/><path class="cls-3" d="M1091.52,613.27q.17,10.77.34,21.53"/><path class="cls-3" d="M990.49,634c-1.33.9.78,5.15,2.22,12.16a115.07,115.07,0,0,1,1.41,12.36c.54,6.29.29,6.32.81,13.17.64,8.62,1.08,9.17,1.41,15.8.16,3.32,0,2.8.2,11.55.14,7.47.23,7.82.4,15.81.07,3.48.17,8.14.2,14.18,0,5.69,0,6.67,0,12.16s.11,9.25.2,14c.55,26.21.58,25.19.61,29.38,0,2.12.08,11.39-.2,23.51-.26,11.25-.59,14.88-.61,25.53,0,7.37.13,12.62.2,15,.06,1.79.26,7.91.81,16.21.6,9,.91,13.68,1.82,20.26.44,3.21,1.21,8.72,2.82,15.81,1.91,8.44,2.43,7.72,4.23,16,.69,3.15,1.64,8,3.43,15,1,4,1.46,5.38,2.42,7.09a22.48,22.48,0,0,0,8.47,8.31c5.19,3.13,9.87,3.6,16.33,4.26,5.94.6,10.28.2,18.95-.61,6.45-.6,9.47-1.27,12.7-2.84a24.86,24.86,0,0,0,6.85-4.86,23.4,23.4,0,0,0,5.25-8.31c.64-1.83.43-2,1.41-6.48.38-1.75.77-3.31,2-7.91,3.18-11.72,3.17-10.7,3.83-13.77.43-2,.9-5.92,1.82-13.78.85-7.3,1.28-11,1.41-12.77.42-6.05.06-6.66.4-17.42.2-6.23.31-5.62.41-10.14.17-8-.08-14-.21-16.61-.3-6.28-.55-5.74-1-13-.32-5-.42-9.78-.61-19.25-.16-8.08-.24-12.13-.2-16.41.08-8.19.38-8.65.4-16.21,0-8.19-.32-8.35-.2-15,.12-6.31.43-6.32.81-15.19.16-3.72.24-8.42.4-17.83.14-8.07.1-7.51.2-13,.19-9.84.28-14.75.61-20.87.44-8.31,1-14.53,1.21-16.21.41-4.22.81-7.41,1.61-13.78.94-7.54,1.41-11.31,1.61-12,.3-1,.67-3.55,1.41-8.71.16-1.06.32-2.28-.4-3s-2.33-.49-4.64-.41c-.76,0-.36,0-6.25-.6-3-.3-6.35-.63-8.87-.81-1.94-.14-4.12-.25-11.89-.21-5.21,0-8.93,0-14.52.21-11.57.32-11.43.69-17.74.6-5.6-.07-6.2-.37-12.7-.4-4.3,0-6,.09-9.48-.2a32.93,32.93,0,0,0-3.83-.21,42.66,42.66,0,0,0-6.45.81c-5.44.89-6,1-7.05.81C992.1,634.78,991.25,633.48,990.49,634Z"/><path class="cls-3" d="M1020.46,975.34a34.72,34.72,0,0,1-.92-6.55c-.15-3.41.31-4.25.23-8.3a41.13,41.13,0,0,0-.69-7.55c-.85-4.38-2.06-6.06-1.37-6.79s2.67.77,6.63,2.26a64,64,0,0,0,8.47,2,88.17,88.17,0,0,0,10.52,1.76,32.3,32.3,0,0,0,9.61-.25c2-.43,1.74-.63,4.34-1.26,5.35-1.31,6.17-.4,9.38-1.51,4.2-1.46,6.21-4.2,6.86-3.52.48.49-.62,1.91-1.6,5.53a39.73,39.73,0,0,0-1.14,7.3c-.16,1.77-.19,3.38-.23,6.54-.11,7.88.15,9.39-.92,11.83a14.6,14.6,0,0,1-2.74,4,20,20,0,0,1-6.18,4.53,28.82,28.82,0,0,1-8.92,3.27,28,28,0,0,1-11.66-.5,41.41,41.41,0,0,1-9.61-3.78,23.14,23.14,0,0,1-5.72-3.52,20.66,20.66,0,0,1-4.34-5.53"/><path class="cls-3" d="M997.4,759.08a61.2,61.2,0,0,0,10,1.8,73.87,73.87,0,0,0,14.44-.16c2.52-.26,4-.54,7.74-.82,1.63-.13,3.76-.25,6.69-.33,6.35-.17,8.16.13,15.14.16,2.44,0,.94,0,11.09-.16,4.1-.05,8.21-.24,12.32-.17,4.5.08,6.83.28,10.56-.32a37.48,37.48,0,0,0,5.46-1.32"/><path class="cls-3" d="M1023.53,979.43c.31-5.22.36-9.72.32-13.28,0-2.32-.07-5.66-.4-10.08-.25-3.31-.58-6.15-.88-8.38"/><path class="cls-3" d="M1027.6,982.46c-.16-10.45-.1-16.2,0-19.58,0-.8.11-3.18,0-6.37-.09-2.93-.31-5.34-.48-7"/><path class="cls-3" d="M1032.31,985a180.37,180.37,0,0,0,0-18.69c-.09-1.25-.28-3.48-.32-6.64,0-1.21,0-2,0-6.64v-2.76"/><path class="cls-3" d="M1037.82,987.37c-.24-4.89-.3-8.82-.32-11.51,0-1.75,0-1.61,0-7,0-6.1,0-6.82,0-8.91s.1-5,.32-8.61"/><path class="cls-3" d="M1043.8,988.85c0-6.34,0-11.38,0-14.9,0-4.84,0-5.54,0-7.72.07-3.64.22-5.74.16-9.47,0-1.89-.1-3.44-.16-4.45"/><path class="cls-3" d="M1049.31,988.93a104.21,104.21,0,0,0,.72-14.81,77.44,77.44,0,0,1-.08-8.66c.17-2.72.47-4.47.63-8.22.09-2.09.1-3.81.08-4.93"/><path class="cls-3" d="M1055.61,987.37c0-6,.07-10.7.08-13.89,0-5.56,0-6.72.08-9.15.06-2.62.13-4.38.16-7.52,0-2.43,0-4.4,0-5.67"/><path class="cls-3" d="M1061,985c-.14-4.7-.18-9.69-.08-15,0-2.32.2-4.57.32-9.21,0-1.51.06-2.81.16-4.66.13-2.65.33-4.8.48-6.22"/><path class="cls-3" d="M1065.19,982.7c.21-5,.27-8.81.28-11.48,0-1.64,0-3.56.18-6.25s.46-4.65.65-6c.34-2.4.53-3.19,1.22-7.62.2-1.31.36-2.38.46-3.07"/></g></svg>
