<svg id="Layer_2" data-name="Layer 2" xmlns="http://www.w3.org/2000/svg" viewBox="0 0 309.27 406.45"><defs><style>.cls-1{fill:#fff;stroke:#000;stroke-miterlimit:10;}</style></defs><path class="cls-1" d="M95.19,76.23C97,83.63,112.94,86,119.27,87c6.59,1,7.17.26,20.13,1.59,7.13.73,7.91,1,13,1.58,10.35,1.1,14.11.54,29.21.8,14.81.25,13.84.83,25.66.79,2.09,0,10.07-1.33,26-4,2-.33,5.39-.94,7.11-3.57,1.35-2.07.78-4,.79-9.13,0-2.13.1-.42.79-10.31.62-9.05.33-7.37.79-13.89.58-8.32.93-9.22,0-10.72-1.76-2.79-5.11-3-13.43-4.36-11.3-1.88-7.83-2-18.15-3.57-4.36-.67-11.7-1.78-21.32-2.38-9.45-.59-9.38,0-22.11-.4-12.57-.43-13-1.06-23.29-1.19-9.2-.11-7,.41-18.94.4,0,0-5.74,0-18.56,1.19-4.12.38-6.74.71-8.68,2.78-1.06,1.12-1.39,2.85-1.73,4.13A19.81,19.81,0,0,0,96,42.51c.17,6.76-.72,6.05-.39,14.28.26,6.53.85,8.19.39,13.1S94.82,74.66,95.19,76.23Z"/><path class="cls-1" d="M96.62,40.06c6.31,1,15.37,2.36,26.38,3.32,6.2.54,4.48.22,33.31,1.47,14.62.64,22.36,1,31,.37,1.1-.09,4.85-.39,10.17-.74,6.43-.42,9.65-.63,13.42-.73,10.88-.32,12.41.6,19.43,0a71.16,71.16,0,0,0,12.5-2.21"/><path class="cls-1" d="M97.81,126.78A140.47,140.47,0,0,0,72,132.17c-11.14,3.44-15.05,6.17-18,9.43a29.13,29.13,0,0,0-7.22,13.47,30.06,30.06,0,0,0-.6,8.75c.77,14.59,2,23,2.4,30.31.38,6.71-.35,4.73-1.2,26.27-.38,9.6-.5,16.66-.6,22.9-.4,23.86.35,23.7,0,42.43-.3,16-.95,21.2,0,33s2.41,17.07,4.21,21.55a55.14,55.14,0,0,0,12,18.19c7.43,7.78,14.4,11,27.06,16.84,7.8,3.6,15.26,7,25.86,9.43,8.57,1.93,15.74,2.18,30.06,2.69,5.38.19,13.39.46,24.06,0,15.92-.68,23.87-1,32.47-4,7.7-2.7,12.93-6.09,22.25-12.12,6.95-4.51,12.53-8.17,18.64-14.82,4.88-5.3,8.45-9.19,10.83-15.49s1.37-9.48,1.2-29c-.11-12.62-.16-18.93.6-27.62.93-10.58,1.89-11.28,3-24.24.4-4.61.4-6,1.2-20.88.39-7.21.78-14.49,1.21-21.56.81-13.47.79-27,2.4-40.41.79-6.58,1.52-10.67,0-16.16-2.13-7.7-7.12-12.45-9.62-14.82a36,36,0,0,0-15.64-8.75"/><path class="cls-1" d="M46.21,169.08a183.31,183.31,0,0,0,37,16.28c16,5,27.72,6.2,48.25,8.18,21.42,2.06,42.07,3.94,69.19,1a289.87,289.87,0,0,0,41.79-7.64c8.39-2.19,15.49-4.44,20.93-6.31"/><path class="cls-1" d="M46.57,244c4.08,1.25,10.18,3.26,17.38,6.23,9.45,3.89,15,7,19,9,11.84,5.84,22,7.23,40.07,9.7C138.22,271,149,271,166.58,271a371.12,371.12,0,0,0,47.09-2.77c10.55-1.33,17.84-2.74,26-5.54a109.29,109.29,0,0,0,19.68-9"/><path class="cls-1" d="M96,77.93c-.22.14,0,.84.07,1.17.24.85.4,5.14.71,13.72,0,.75,0,1.3.06,1.78.06,2,.1,3.84.26,10.57l.54,20.44c.11,4.25.46,8.51.33,12.77-.11,3.72-.38,6.28.27,10.22a20.94,20.94,0,0,0,2.16,7.18,19.37,19.37,0,0,0,6.49,6.65c3.17,2.15,6,3.07,11.58,4.81,8.84,2.78,13.27,4.16,13.94,4.32,5.37,1.29,9.34,1.72,17,2.54A212.08,212.08,0,0,0,172,175.64a146.1,146.1,0,0,0,19.72-.94,119.24,119.24,0,0,0,21.21-4.39,53.35,53.35,0,0,0,14.83-6.78c5.05-3.41,6.65-5.88,7.31-7,2.07-3.54,2.43-7,2.87-11.15.56-5.28-.22-5.66.07-12.36.27-5.94.9-6.1,1.25-12.81.26-5.09-.12-4.7.11-10.66.19-4.56.47-6.3.84-13.23.45-8.25.21-8.87-.24-9.37-2.64-2.91-8.87,2.16-20.43,4-4.07.63-3.09,0-16.59,0-9.58,0-10.07.37-24.86.65-9.33.19-14.09.27-18.95.07-6.65-.27-11.88-1-20.59-2-11.68-1.42-10.08-1.71-15.85-2.15h-.15c-7.17-.55-10.75-.81-14.26-1.86s-6.51-2-9.08-4.59C98,79.78,96.39,77.66,96,77.93Z"/></svg>
