<svg id="Layer_1" data-name="Layer 1" xmlns="http://www.w3.org/2000/svg" viewBox="0 0 151 402"><defs><style>.cls-1{fill:#fff;stroke:#000;stroke-miterlimit:10;}</style></defs><path class="cls-1" d="M16.52,30.6c1.62,2.88,9.07,1.5,12.48,1,10.6-1.68,21.46.22,32.18,0,23.17-.49,22.89-.53,25.93-.49,14.88.21,22.31.31,23.54.47,7.16,1,10.94,2.25,13,0,2.3-2.57-1.1-6,0-15.85.25-2.29.67-4.3-.48-5.28-1.39-1.19-3.9.12-6.72,1-3.94,1.18-4.66.32-16.81,0-5.5-.15-9.53-.08-14.41,0-7.56.12-8,.35-15.85.49-6.87.12-12.1,0-14.41,0-4.76-.09-8.44-.15-13.45-.48-7.23-.46-10.85-.7-13-1-6.35-.77-8.44-1.48-10.09,0-1.49,1.34-1.63,3.62-1.92,8.17-.16,2.55.13,2.73,0,6.72S16.08,29.83,16.52,30.6Z"/><path class="cls-1" d="M20.71,9.57,20.2,32.31"/><path class="cls-1" d="M24.37,9.88q-.09,11.18-.17,22.34"/><path class="cls-1" d="M27.5,10.3q.16,10.58.35,21.15"/><path class="cls-1" d="M31.67,10.72V31.18"/><path class="cls-1" d="M35.15,11V31"/><path class="cls-1" d="M38.63,11.19q-.09,9.83-.17,19.67"/><path class="cls-1" d="M42.11,30.58V11.19"/><path class="cls-1" d="M46.1,11.63q-.08,9.71-.16,19.43"/><path class="cls-1" d="M49.93,11.76q-.09,9.65-.17,19.3"/><path class="cls-1" d="M53.23,11.83V31.42"/><path class="cls-1" d="M57.23,11.89V31.55"/><path class="cls-1" d="M60.36,11.92l.18,19.49"/><path class="cls-1" d="M64,11.92l.18,19.49"/><path class="cls-1" d="M68.19,11.87V31.39"/><path class="cls-1" d="M71.67,11.91l.18,19.41"/><path class="cls-1" d="M75.32,11.91V31.05"/><path class="cls-1" d="M79.14,11.82,79,31.05"/><path class="cls-1" d="M82.1,11.82q.27,9.62.53,19.23"/><path class="cls-1" d="M86.1,11.82q.18,9.62.35,19.24"/><path class="cls-1" d="M89.92,11.3q-.08,9.75-.16,19.48"/><path class="cls-1" d="M94.27,11.3V31"/><path class="cls-1" d="M97.4,11.32V31"/><path class="cls-1" d="M101.05,11.41q.27,9.81.53,19.63"/><path class="cls-1" d="M104.36,11.54l.18,19.65"/><path class="cls-1" d="M108.71,11.78V31.05"/><path class="cls-1" d="M113.72,12v19.8"/><path class="cls-1" d="M117.92,11q.18,10.77.35,21.53"/><path class="cls-1" d="M16.9,31.75c-1.33.9.78,5.15,2.22,12.16a112.13,112.13,0,0,1,1.42,12.36c.54,6.3.29,6.32.81,13.17.65,8.63,1.09,9.17,1.41,15.8.17,3.32,0,2.8.21,11.55.14,7.47.24,7.82.41,15.81.07,3.48.17,8.14.2,14.18,0,5.69,0,6.67,0,12.16s.1,9.25.2,14c.55,26.22.58,25.19.62,29.38,0,2.12.08,11.39-.2,23.51-.26,11.25-.58,14.88-.59,25.53,0,7.37.13,12.62.2,15,.06,1.79.26,7.91.81,16.21.6,9,.92,13.68,1.82,20.26.45,3.22,1.22,8.72,2.83,15.81,1.92,8.44,2.44,7.72,4.24,16,.69,3.14,1.64,8,3.43,15,1,4,1.47,5.38,2.42,7.09a22.59,22.59,0,0,0,8.47,8.3c5.2,3.13,9.88,3.6,16.34,4.25,5.94.61,10.28.2,18.95-.61,6.45-.6,9.47-1.27,12.7-2.84a24.86,24.86,0,0,0,6.85-4.86,23.24,23.24,0,0,0,5.24-8.31c.65-1.84.43-2,1.41-6.49.38-1.74.77-3.31,2-7.9,3.18-11.72,3.16-10.71,3.83-13.78.42-1.94.89-5.92,1.81-13.78.85-7.3,1.28-10.95,1.41-12.77.42-6,0-6.65.39-17.42.2-6.23.31-5.62.4-10.13.17-8-.08-14-.2-16.62-.31-6.28-.56-5.74-1-13-.32-5-.42-9.78-.62-19.25-.16-8.08-.24-12.12-.2-16.41.08-8.19.38-8.64.4-16.21,0-8.18-.33-8.35-.21-15,.11-6.32.43-6.32.8-15.2.16-3.72.24-8.42.4-17.83.14-8.07.09-7.51.2-13,.18-9.83.27-14.75.6-20.87.43-8.31,1-14.53,1.2-16.21.42-4.22.81-7.41,1.61-13.78.94-7.54,1.41-11.31,1.61-12,.3-1,.67-3.55,1.41-8.71.15-1.06.31-2.28-.41-3s-2.33-.49-4.64-.4c-.76,0-.36,0-6.25-.61-3-.3-6.35-.63-8.87-.81-1.94-.14-4.12-.24-11.89-.2-5.21,0-8.93.05-14.52.21-11.57.33-11.43.7-17.74.61-5.6-.07-6.2-.36-12.7-.4-4.3,0-6,.1-9.48-.2a35.52,35.52,0,0,0-3.83-.2,42.66,42.66,0,0,0-6.45.81c-5.44.89-5.95,1-7,.82C18.51,32.53,17.66,31.24,16.9,31.75Z"/><path class="cls-1" d="M47,373.08a34.74,34.74,0,0,1-.91-6.54c-.16-3.41.3-4.26.22-8.3a41.13,41.13,0,0,0-.69-7.55c-.85-4.39-2.06-6.06-1.37-6.79s2.67.77,6.63,2.26a62.85,62.85,0,0,0,8.47,2,88.17,88.17,0,0,0,10.52,1.76,32.12,32.12,0,0,0,9.61-.26c2-.42,1.74-.62,4.34-1.26,5.35-1.31,6.17-.4,9.38-1.51,4.2-1.46,6.21-4.2,6.86-3.53.48.5-.62,1.92-1.6,5.54a39.73,39.73,0,0,0-1.14,7.3c-.16,1.76-.18,3.38-.23,6.54-.1,7.88.16,9.39-.91,11.82a14.73,14.73,0,0,1-2.74,4,20,20,0,0,1-6.18,4.53,28.82,28.82,0,0,1-8.92,3.27,27.93,27.93,0,0,1-11.66-.49A41.58,41.58,0,0,1,57,382.13a22.92,22.92,0,0,1-5.72-3.52A20.43,20.43,0,0,1,47,373.08"/><path class="cls-1" d="M23.85,156.83a61.2,61.2,0,0,0,10,1.8,72.82,72.82,0,0,0,14.44-.17c2.52-.26,4-.54,7.74-.82,1.63-.13,3.76-.25,6.69-.33,6.35-.17,8.16.13,15.14.16,2.44,0,.94,0,11.09-.17,4.1-.06,8.21-.24,12.32-.17,4.5.08,6.83.28,10.56-.33a38.86,38.86,0,0,0,5.45-1.31"/><path class="cls-1" d="M50.05,377.17c.31-5.22.36-9.71.32-13.27,0-2.32-.08-5.67-.41-10.08-.25-3.32-.58-6.16-.88-8.38"/><path class="cls-1" d="M54.12,380.2c-.17-10.45-.11-16.2,0-19.58,0-.8.11-3.18,0-6.37-.09-2.93-.31-5.33-.48-6.94"/><path class="cls-1" d="M58.83,382.73a179.31,179.31,0,0,0,0-18.69c-.08-1.25-.27-3.48-.32-6.64,0-1.21,0-2,0-6.64V348"/><path class="cls-1" d="M64.34,385.11c-.24-4.89-.31-8.83-.33-11.51,0-1.75,0-1.61,0-7,0-6.1,0-6.82,0-8.92s.1-5,.32-8.6"/><path class="cls-1" d="M70.32,386.59c0-6.34,0-11.39,0-14.9,0-4.84,0-5.54,0-7.73.07-3.63.21-5.73.15-9.46,0-1.9-.1-3.45-.16-4.46"/><path class="cls-1" d="M75.83,386.66a103.73,103.73,0,0,0,.71-14.8,79.94,79.94,0,0,1-.08-8.66c.17-2.73.48-4.48.64-8.23.08-2.09.09-3.81.07-4.93"/><path class="cls-1" d="M82.13,385.1c0-6,.06-10.7.08-13.89,0-5.55,0-6.72.07-9.14.06-2.63.13-4.39.16-7.53,0-2.42,0-4.4,0-5.67"/><path class="cls-1" d="M87.56,382.73c-.14-4.71-.19-9.7-.09-15,0-2.33.2-4.58.32-9.21,0-1.52.06-2.81.16-4.67.13-2.65.33-4.8.47-6.22"/><path class="cls-1" d="M91.71,380.43c.21-4.95.26-8.81.27-11.48,0-1.64,0-3.56.19-6.25s.46-4.65.65-6c.33-2.4.52-3.19,1.2-7.62.21-1.31.37-2.38.47-3.07"/></svg>
