<svg id="Layer_1" data-name="Layer 1" xmlns="http://www.w3.org/2000/svg" viewBox="0 0 140 421"><defs><style>.cls-1{fill:#fff;stroke:#000;stroke-miterlimit:10;}</style></defs><path class="cls-1" d="M24.42,151.22a113.2,113.2,0,0,0,25.17,6.93,111.78,111.78,0,0,0,15.1,1.26c.6,0,1.92,0,3.62,0,3.12-.07,5.72-.25,14.62-1.24,6-.67,9.65-1.13,14.08-2.05a27,27,0,0,0,4.17-1.1c3.16-1.16,4.1-2.28,8-4,2.43-1.11,3.64-1.67,4.62-1.63,3.17.13,5.45,3.61,7.55,6.93A48.89,48.89,0,0,1,128.23,177a276.69,276.69,0,0,1,1.88,31.48c0,13.93,0,20.89,0,30.86-.07,15.59-.12,27.66,0,41.55.15,16.14.23,24.2.63,35.27.15,3.9.13,17.07.09,43.4,0,6.12-.08,11.94-3.25,18.45-3.49,7.16-8.79,11.14-13.55,14.65a64.64,64.64,0,0,1-29.82,11.94c-10.85,1.24-18.73-.86-29.81-3.8-14.53-3.86-20.69-8.56-22.23-9.77a38.82,38.82,0,0,1-10.3-11.39c-3.19-5.57-3.56-9.91-4.88-28.76-1.29-18.52-1.62-23.87-1.62-23.87C14.44,312.16,14,304.71,13.74,301c-1.6-25.15-1.84-26.2-2.17-35.26-.21-5.93-.05-3.87-.54-22.79-.19-7.23-.23-14.47-.54-21.7s-1.25-16.49,0-23.33c.08-.46,1.26-6.85,1.26-6.85l.91-4a240.76,240.76,0,0,1,7-23.87C20.82,160.09,22.38,156,24.42,151.22Z"/><path class="cls-1" d="M100,30.87c3.43.8,7.29,2.08,9.64,4.71,2.8,3.13,1.76,6.8,1.41,10.13-.83,7.77,1.93,12.44,2.48,20.5.5,7.29-1.41,15.94-1.31,24.12.08,6.48,1.7,14,1.84,21,.1,5.66-.62,18.17-.7,22.49-.09,4.87,2.57,13.81.38,15.6C98.85,161.59,37.76,162.68,24.78,151c-1.64-1.48.14-.24-.58-1.76s-.64-2.65-.91-5.07c-.47-4.15.64-9.9.58-14.6a25.13,25.13,0,0,0-.32-3.62c-.32-1.65-.93-3.24-1.35-4.92a45.18,45.18,0,0,1-.85-4.75c-.17-1.37-.28-2.85-.31-4-.1-3.47.25-7.54.29-10.67,0-1.91-.15-5-.23-5.9-.31-3.77-.62-4.44-1-8-.35-3.17-.4-3.55-.7-8.74-.12-2.18-.43-14.31,0-18.49.16-1.4.29-4.34.56-5.65s.49-3,.61-4,.09-2.86.09-3.16C20.62,43.81,20,38.4,22,35.68c3-4.13,7.16-3.16,11.33-3.51"/><path class="cls-1" d="M11.75,189.68a54.28,54.28,0,0,0,13.47,10.67c1.62.89,6.68,3.57,21.2,6a135.41,135.41,0,0,0,27.5,2.49A131.45,131.45,0,0,0,98,206c13.9-2.92,18.74-6.19,20.92-7.82a45.62,45.62,0,0,0,10.31-11"/><path class="cls-1" d="M35.12,32.21c-2.08-3.51-1-8.69,1.26-12,1.8-2.56,4.26-3.8,7.55-5A71.49,71.49,0,0,1,65.32,10.8c9.31-.45,16-.7,23.9,2.52,4,1.62,8.32,3.48,10.7,8.19.28.56,3.32,6.77.63,11.33-2.48,4.21-10.08,4.54-25.17,5A190.44,190.44,0,0,1,54,37.25C38.42,36,36.19,34,35.12,32.21Z"/></svg>
