<svg xmlns="http://www.w3.org/2000/svg" viewBox="0 0 1920 1080"><defs><style>.cls-1,.cls-2{fill:none;}.cls-1{stroke:#d9eded;stroke-linecap:round;stroke-linejoin:round;stroke-width:3px;}.cls-2{stroke:#000;stroke-miterlimit:10;}</style></defs><g id="Layer_3" data-name="Layer 3"><path class="cls-1" d="M-.18-.78S2.38-2.31,2.4-2.27c.14.23-4.71,7.94-4.62,8.1s12.81-7.76,13-7.48S.66,9.51.82,9.78C1.06,10.2,17.57-.58,17.87-.07S-.55,15.86-.21,16.45C.25,17.24,34.54-4.74,35-3.89c.59,1-39.74,27.15-39.21,28.06s44.33-27.09,45-26C41.33-.85-.36,25.54.36,26.8S45.18-1,46,.44c.6,1-45.23,30.1-44.53,31.31C2.28,33.14,58-2.62,58.75-1.32S2.55,35.17,3.54,36.88,65.75-1.07,66.63.45-2.32,43.12-1.15,45.15C.12,47.35,83-5.65,84-4,85.25-1.72-.28,47.27,1,49.43S90.22-4.73,91.36-2.76C93,.11-4.37,54.85-2.95,57.3-1.37,60,101.54-6.4,103-3.87,104.21-1.77,1.69,57.25,3.12,59.74,4.43,62,108.89-5.38,110.65-2.34S-1.49,64.23.38,67.48C1.89,70.09,114.78-1.79,116.17.63S-4.71,72.41-3.2,75C-1.5,78,131.68-7.62,133.75-4S-.74,74.06,1.55,78C3.63,81.63,137.17-4.88,139.16-1.43,141.27,2.23-3.59,81.39-1.3,85.35.59,88.63,151.17-7.15,153.11-3.8,155.6.52-5.71,88.14-3.2,92.48-1.17,96,158.28-5.1,160.16-1.84,162.7,2.55,2.07,91,4.07,94.44S163.61-4,166.34.75C168.85,5.11-6,101.13-4,104.61-1.31,109.27,181.06-7.24,183.22-3.49,185.82,1,1.12,100.48,4.07,105.58,6.3,109.44,182.69-4.36,185.64.74,188.2,5.19-4.38,110.6-1.79,115.08c2.88,5,197.9-120.4,200.55-115.79S1.59,113.06,4.3,117.75C7.4,123.12,208.39-5.79,210.86-1.51,213.52,3.1.55,119.56,3,123.81,5.8,128.65,219.58-7.21,222.17-2.72,225.56,3.15,1.31,124.63,3.88,129.08,7.32,135,226.6-8.19,230.36-1.68,234.27,5.09.42,128.84,3.64,134.42S232.83-7,236.78-.18C240.1,5.57,1,134.48,3.94,139.49,7.06,144.9,248.81-9.84,252.26-3.87S-8.33,142.83-4.14,150.07C-1,155.58,256.15-8.34,259.67-2.24c4,6.89-267.52,150.47-263.1,158.14S268.07-8.21,271.25-2.69-1,152.39,2.36,158.28,275.15-10.2,279.9-2C283.49,4.25-.28,156,3.93,163.28,7.48,169.44,284.94-7,288.42-1,292.24,5.66-1.41,162.16,2.71,169.3,6.63,176.07,291.34-8.82,296.31-.21,301.16,8.19-.23,166,4.35,174,8.53,181.2,306.1-9,309.9-2.44,314.46,5.46-9.08,174.87-3.79,184,.43,191.34,309.33-9.2,314.73.14,318.59,6.83-4.49,177.4.83,186.62,5,193.9,324.26-9.8,328.46-2.54,332.85,5.07-3.76,185.32.37,192.48c5.78,10,330.14-204,336-194C341.93,8.22-9.47,191.33-3.79,201.17S343.23-12.73,349.1-2.57C354.67,7.08-6.84,195.86-1.07,205.85,4.09,214.78,354.24-11.27,359.43-2.28,365.5,8.23-6.22,204.54-1.95,211.92c5.5,9.55,359.76-222.2,366-211.33C369.72,10.35-3.2,207.25,1.54,215.46,7.48,225.76,375.2-14.44,381.34-3.82S-1.41,210.91,3.64,219.66C9.28,229.43,385.05-14.53,391.1-4,396.1,4.61-7.11,218.9-1.51,228.59,4.84,239.6,390.17-12.78,396.77-1.36,403.59,10.45-5.41,220.3,1.47,232.22,7.74,243.07,397.9-9.21,403.34.2c6,10.43-410.76,227.35-404.07,239C4.86,248.83,413.15-13.6,419.13-3.25,425.58,7.92-4,231.32,2.84,243.21,8.38,252.82,424.43-15,430.84-3.9,436.75,6.34-4,236.42,3,248.62,8.35,257.88,426.79-10.78,433.17.27c5.25,9.1-436.25,241-429,253.53S440.7-11.06,446.26-1.43C452.08,8.65-6.51,252.15-.58,262.43,5.73,273.35,449.1-13.64,456.22-1.3c5.61,9.72-463.68,259-457.57,269.53,5.6,9.7,462.42-283.6,469.61-271.14C473.77,6.63-6.29,261.19.54,273,6.07,282.59,473-14.9,479.59-3.55,485.9,7.39-2.25,266.53,3.65,276.74,10,287.72,480.37-14.64,487.36-2.53,493,7.2-4.41,267.68,3.89,282.06,11.15,294.64,492.34-14.17,498.5-3.5,505.7,9-9.52,280.86-3.13,291.93,3,302.61,501.34-14.21,507.79-3c8.1,14-520.2,285.62-511.3,301C4.28,311.48,509.62-16.69,517.59-2.88,523.93,8.09-3,285.91,4.36,298.7,10.65,309.6,517.82-14.56,525.1-1.95,531.28,8.75-5.59,292.27,2.3,305.93,11.32,321.56,529-12.93,535.41-1.85,543.42,12-11,301.21-3,315.07S537.2-16.73,545.82-1.78C553.45,11.43-6.38,303.5,2.06,318.12,9.07,330.27,549.77-17.78,558.29-3S-11.51,312.42-2.95,327.24C5.86,342.5,557.13-18.45,566.79-1.71,574.17,11.07-7.86,318.48-.56,331.13,7.66,345.36,566.62-15,574.7-1,582.41,12.35-3,322.89,3.73,334.56,13,350.66,579.45-15.27,587-2.19,594.47,10.74-8.23,330.08-.71,343.1,7.75,357.75,590.7-16.52,598.57-2.9S-11.51,334.88-2.51,350.47C5.19,363.8,600.32-15.44,608.06-2,616.19,12.05-12.06,339-2.38,355.78,7,371.93,606.83-13.28,614.34-.28,623.13,15-10.68,345-1.25,361.32,6.43,374.62,618-14.42,625.85-.74,635.92,16.69-9.2,354.62-1.61,367.77c10.48,18.14,636.41-385,644-371.83,10.37,18-653.88,361.82-644.74,377.64,10,17.27,640.46-394.21,651-375.88C660,17.18-14.21,362.74-4.23,380,6.16,398,647.61-18.46,657.2-1.84,667.34,15.73-7.67,367.5,1.27,383,9.9,397.94,656.8-21.08,667.88-1.89,676.1,12.35-13.49,374.29-3.67,391.31,5.14,406.57,667.85-16.46,676.54-1.41,685.6,14.29-10.37,380-1.51,395.38,8.34,412.44,679-19,688.3-2.88,696.36,11.08-7.9,381,2.46,399c8.6,14.9,686.07-414.85,694.18-400.79C706.34,15-9,384.08,2.76,404.52c8.66,15,692.12-424.47,702.89-405.81C715.86,16.4-13.52,398-4.11,414.32,4.9,429.93,703-15.39,712.26.72,724.4,21.76-6,400.14,3.19,416.07,12.82,432.75,715.25-20.1,726.11-1.3,737.24,18-7.06,403.69,3.46,421.92,15.63,443,722.91-18.13,733.59.38,745.62,21.21-9.66,414.28-.55,430.06,8.28,445.37,737.29-19.15,747.34-1.74,758.13,17-13.84,416.13-2.15,436.39c8.79,15.22,753-456.83,762.56-440.27C769.83,12.44-7.71,423.86,1.83,440.39,14.13,461.69,759.62-20.12,769.58-2.87,782.3,19.16-9.71,425.28,2.21,445.94c9.18,15.9,764.57-470,776.95-448.57S-8.59,429.67,3.66,450.89C16.56,473.24,778-25.94,790.91-3.63,801.67,15-15.08,442.28-4.15,461.22,6,478.78,784.33-21.22,796.11-.81,807.08,18.18-11,447-.74,464.74,12.86,488.29,800.18-22.54,810.94-3.89,823.31,17.53-17.53,448.76-4.16,471.92,6.37,490.15,802.47-23.17,815.19-1.13c11.59,20.07-828.93,458.47-817.65,478C7.15,493.53,816.94-28.18,830.79-4.19,845.15,20.69-15.44,456.64-1,481.58,9.57,500,828.13-23.19,839.4-3.65,852.89,19.7-18.51,464.24-4.13,489.15c14.18,24.56,841.75-510.07,852.18-492C859.65,17.24-16.28,472.44-3.47,494.63,7.64,513.88,844-19.28,854.68-.82c14.65,25.36-869,483.71-858.6,501.65C9.63,524.29,856.62-20.11,867.06-2,878.12,17.12-13.76,482.26-1,504.39c14,24.26,862.84-532,877.47-506.61C886.89,15.81-15.41,484.61-.73,510,10.91,530.2,872.63-28.13,887.32-2.68,900,19.34-6.33,494.47,4.13,512.59,14.74,531,883.93-25,896.78-2.78,911.06,22-13.89,494.22,1,520,15.45,545,893.82-19.66,904.3-1.5c12.46,21.58-914,504-901.22,526.19C17.46,549.59,902.55-22.75,914.73-1.66,927.94,21.23-10.14,509.39,2.21,530.79,16,554.64,908.73-19.81,920.52.61c13.93,24.13-935.21,520.33-924,539.7C9.07,562.09,924.88-25.59,937.83-3.17,952.52,22.28-10.32,517,4,541.78,19.94,569.39,932.75-29.9,948.1-3.31,960,17.26-15.18,533.19-4,552.51,9.78,576.43,938.43-28.8,954.53-.91,967.47,21.5-18.59,531.83-3.5,558,8,577.84,946.71-28.76,963.22-.17,974.55,19.47-12.93,541-.64,562.3,10.8,582.1,963.67-27.1,977.81-2.61,993.21,24.07-14.14,537.8,2.52,566.65,16.65,591.12,973.62-21.08,985.34-.78,999,22.94-17.7,551.17-3.33,576.06,12.75,603.91,982.28-27.68,997.3-1.65,1009.08,18.74-12.15,556.56,1.22,579.72,16.58,606.32,992.68-27.2,1007.62-1.33,1021.05,21.92-14.55,562.58-.9,586.22,15.12,614,1001.73-31.87,1018.72-2.45,1032,20.46-17.35,570-3.74,593.58c14.06,24.35,1017.47-625.82,1034.09-597C1048.07,27.23-10,570,4.16,594.51c15.3,26.52,1016.25-623,1032-595.81C1050.38,23.38-13.8,574.9,1.82,601.94,18.89,631.51,1033.63-35.5,1051.69-4.2c14.45,25-1064,585.09-1049,611.11C15.08,628.37,1045.59-26.07,1059-2.93,1072.08,19.82-16.27,593.16-3.33,615.58,9.18,637.24,1053-25.73,1066.63-2.16,1083.83,27.64-21.87,589.05-3.48,620.92,12.81,649.13,1059.08-27.06,1074-1.18,1088.09,23.19-14.75,590.33,3.83,622.51c16.53,28.62,1064-644.26,1077-621.8C1093.89,23.38-17.15,601.6-.44,630.54,17.33,661.33,1076.52-27.78,1092.34-.38c12.87,22.3-1109,606.68-1092,636.12C19.37,668.68,1090.17-29.2,1105.65-2.39c13,22.5-1115.43,618-1101.51,642.11,14.8,25.64,1099.18-669,1114.08-643.21C1134,23.83-12.45,621.73,2.22,647.14,17.27,673.21,1107.32-34.15,1126.05-1.7,1143,27.57-13.63,631.71-.25,654.88,16.78,684.37,1122.62-34,1140.19-3.56c16.09,27.86-1154.11,635.16-1138,663C18.82,688.31,1131.29-23.14,1144.58-.13,1164.26,34-19.46,641.48-3.71,668.77,10,692.53,1142.26-33.78,1160-3.08,1173.7,20.68-15.54,643,1,671.62,20.2,704.94,1156.29-27.56,1170.21-3.45,1186.28,24.38-19.63,647.62-1.72,678.64,17.4,711.75,1161-26.74,1175.77-1.19,1195.47,32.94-19.55,653-1.52,684.22,15.08,713,1168.28-33.89,1186.78-1.84,1203.75,27.54-13.75,664.6.43,689.17,20,723.07,1178.66-37.48,1198.75-2.68,1213.17,22.29-21.06,667.18-3.6,697.43,11.2,723.07,1185.91-33.48,1205-.37,1223.31,31.3-20,674.1-3.1,703.29,13,731.2,1201.29-26.8,1216.33-.75,1234.59,30.88-17.94,684.32-3.66,709,11.44,735.2,1209.27-38,1229.53-2.94,1250.25,33-16.37,677.21,3,710.72c21.36,37,1217.09-745.59,1235.66-713.41C1258.85,32.31-19,689.25-1.55,719.56,17.51,752.57,1222.19-36.53,1243.65.64,1261,30.64-15.55,692.18,2.37,723.23c19.25,33.33,1233-760.49,1254.07-724C1274.83,31-22.23,701.52-4.22,732.7c16,27.69,1255-762.24,1271.34-734C1288,34.94-16.82,710-1.12,737.19,16.66,768,1263.2-38.14,1282.85-4.1,1299,23.92-14.11,710.66,3.11,740.49,23.52,775.85,1274.32-34.28,1292-3.65,1311.55,30.2-19.41,708.68,2.65,746.89,25.09,785.77,1280.9-33.31,1299.17-1.66,1319.22,33.06-19.94,729.06-4.09,756.51,14.52,788.73,1288.09-32.22,1306.57-.2,1325.48,32.54-21.35,725.73-1.38,760.31,19.85,797.1,1295.88-36.5,1316.59-.62,1332.86,27.55-23.06,727.59-1,765.75c16.76,29,1308.21-804.7,1329.6-767.65C1350.88,36.75-27.33,732.93-4.23,772.94,15.93,807.85,1321.29-29.9,1337.55-1.73,1354.53,27.67-15.15,747.6.89,775.37,16.75,802.84,1332.1-29.23,1347.7-2.21,1364.54,27-25.86,746.22-3.93,784.2,17.37,821.08,1343-34.25,1360.68-3.65,1376.44,23.64-23.83,748.63-.74,788.62c23.68,41,1350.93-829.44,1372.36-792.33S-12.42,764.23,3.8,792.32C27.61,833.55,1358-29.53,1375.3.48,1394.56,33.84-19.69,770.43-2,801,14.91,830.37,1367.77-44.57,1391.48-3.52,1408.21,25.46-21.85,766.53.58,805.38c19.8,34.29,1373.16-847.81,1397-806.54C1414,27.24-19.56,777.31.15,811.45c21,36.41,1390.27-847.33,1409.61-813.84C1432.59,37.15-22.25,780.73-.77,817.94c24,41.55,1403.13-855.17,1422.65-821.37C1440.07,28.09-20.11,795.39-3.23,824.62c23.68,41,1410.88-855.28,1428.5-824.75C1442.76,30.16-26.28,788-2.14,829.78,14.79,859.1,1423.62-36.25,1442.18-4.1,1466,37.08-17.73,793.76,4.1,831.57,27.82,872.65,1431.61-32.69,1449-2.62,1474,40.76-23.37,806.75-3.3,841.51,13.56,870.72,1435.12-30.58,1453.14.63,1476,40.18-20.33,815-2.14,846.47,21.06,886.65,1445.71-33,1464.57-.34,1486.84,38.23-19.8,808,3.8,848.86,27.11,889.24,1456.4-36,1476.41-1.35,1495.72,32.09-22.61,817,.32,856.66,20.65,891.88,1467.05-44.66,1490.65-3.78c22.93,39.71-1506,831.93-1487,864.7C22.81,894.17,1478.32-42.22,1500.72-3.43,1520,30-25.11,832.59-3,870.9,22.16,914.46,1485-36,1505.74-.16,1531.83,45-22.78,839.92-2.1,875.72,17.93,910.42,1493-45.42,1518.09-2,1543.69,42.37-24.59,842.8-2.19,881.6c22.24,38.53,1509-919.34,1529.8-883.23C1545.58,29.5-28.94,845.1-4.18,888,14.13,919.68,1514.42-31.53,1532.93.53,1557.49,43.07-27.8,849.87-2.64,893.44,19.07,931,1521.94-43.17,1546.36-.87,1565.59,32.42-17.64,856.92,4.21,894.76c19,33,1531.91-928.16,1550.84-895.38C1577.09,37.56-18.49,864.22,3.11,901.63,24.36,938.44,1552.47-37.41,1571.74-4c20.48,35.48-1595,868.52-1570,911.92C27.27,952,1559.82-41.17,1581.26-4,1604.09,35.52-21.83,884-2.87,916.8,17.23,951.6,1562.18-41.5,1585.87-.46,1610.09,41.49-24.37,872.2,2.7,919.08,29.55,965.58,1573.3-36.82,1594.57,0,1619.32,42.88-17.77,887.21,3.5,924,23.55,958.78,1591-36.69,1610.14-3.55,1635.47,40.33-19.52,892.58,2.27,930.32c21,36.4,1589.88-980.68,1617.05-933.61C1641.07,34.38-24.53,888.18,3.09,936,26.41,976.42,1606.5-43.5,1629.8-3.14c23,39.93-1652.48,908.68-1630.33,947,25.12,43.52,1608.84-993.36,1636.77-945C1656,33.21-20.95,904.1,3.7,946.79,30.88,993.87,1620-50.91,1647.94-2.51,1672.36,39.79-30.74,907.05-2.37,956.19,25.08,1003.74,1625.05-48.16,1653.09.41,1681.38,49.42-17.75,923.85,2.81,959.48,29.28,1005.31,1651.63-37.71,1671.22-3.78,1691.05,30.57-27.06,921.7-.65,967.45,25.4,1012.57,1653.82-37.65,1675.42-.23,1700,42.41-20.53,928.55,3.66,970.44,29.5,1015.2,1669.07-40,1690.25-3.31,1714.23,38.23-26.73,929,1.48,977.84c23,39.88,1675.65-1017.71,1697.42-980C1725.63,44.14-28.51,940.29-2.14,986,23,1029.49,1680.48-48.2,1707.62-1.18,1730.34,38.16-26.62,941,1.57,989.82,28.44,1036.35,1693.08-53.78,1722.1-3.53,1746.2,38.23-24.86,953.27,0,996.3,23.62,1037.24,1698.67-45.31,1725,.34,1746.85,38.13-26.74,953.16,1.16,1001.49,27.22,1046.62,1710.53-42,1735,.44,1757.63,39.62-32.6,959.41-3.68,1009.49,23.71,1056.94,1722.43-48,1748.8-2.31,1770.67,35.56-31.26,968.65-4.28,1015.38,19.89,1057.24,1731.34-51.21,1759.29-2.81,1789.45,49.43-18.23,980.63,2.69,1016.86,33,1069.36,1736.17-54.41,1766.67-1.58,1794.24,46.16-31.36,972.57-1.11,1025,22.72,1066.23,1757.33-43.37,1780.32-3.55c28.2,48.84-1804,998.32-1782.82,1035C19.71,1069.89,1758-50.3,1786.3-1.33,1807.65,35.65-24.91,990.36.77,1034.84,26.78,1079.9,1774-48.54,1799.78-3.82,1822.18,35-20.78,999.12,2.53,1039.49,28.27,1084.08,1776.73-44.12,1802.4.34,1824.89,39.29-26.21,1000.07.76,1046.78,22.12,1083.76,1791.22-46.91,1817.19-1.93s-1844,1015.5-1820,1057C19.8,1094.22,1795-53.16,1825.39-.48,1847.7,38.16-24.88,1008.1,3.3,1056.91,27.41,1098.68,1804.91-51.35,1834.4-.28S-25,1016.73,1.75,1063.16C32.16,1115.83,1816.52-52.52,1845.92-1.58c31.73,55-1869.4,1035.29-1847.75,1072.79C27.28,1121.63,1830.6-39.35,1853.38.1,1879.49,45.33-22.53,1030.42,2.79,1074.28c27.88,48.28,1841.56-1114.2,1863.63-1076C1894,46-26.4,1031.39,2,1080.53,30.92,1130.67,1851.11-39.54,1873.83-.19,1897.06,40.05-18.86,1030.6,10.58,1081.6,34.83,1123.59,1853.8-57.4,1886.2-1.29,1908,36.47-8.58,1034.77,18.77,1082.15,50.89,1137.78,1874.67-42.1,1897.51-2.55c32,55.49-1895.62,1034.72-1867.15,1084C52.78,1120.31,1883.36-38.9,1905.25-1,1936.71,53.5,14.2,1044.18,36.8,1083.33,64.72,1131.69,1888.33-53.29,1917.62-2.56,1941.12,38.16,24,1041.49,47.7,1082.61,78.39,1135.78,1899.77-42,1923.73-.51,1947.16,40.08,37,1041.68,60.12,1081.78,91.23,1135.65,1894.17-42.34,1922.42,6.59c30.12,52.17-1876.45,1029.85-1851,1074C94.7,1120.85,1894.14-22.89,1916.27,15.44c24.82,43-1862.5,1015-1834.12,1064.13C109,1126,1896.84-18.43,1918.62,19.29,1949.37,72.55,70.38,1041.62,92.47,1079.88,124,1134.44,1892.13-23.85,1920.15,24.67c25.06,43.41-1844.8,1010.44-1818.5,1056,26.94,46.66,1791.59-1088.51,1815-1047.91C1947.34,85.86,82.85,1033.19,110.6,1081.26,141.54,1134.84,1896.09-13.26,1923.66,34.49,1947.93,76.52,95.71,1037.16,121,1081c28.26,49,1774.43-1084.27,1800.33-1039.42,28.05,48.59-1810,1001-1788.49,1038.27C160.94,1128.47,1895.82,14.2,1916.51,50,1940.05,90.8,113.37,1026.25,144,1079.35,166.51,1118.3,1894.71,17.21,1917,55.75c23.51,40.71-1792.82,983.64-1768.1,1026.47,30,51.94,1749.5-1063.13,1772.48-1023.34,25,43.32-1788.59,979.87-1763.2,1023.85C181.74,1123.6,1894.06,15.33,1922.27,64.21c29.65,51.35-1777.67,981.54-1755.89,1019.27C190,1124.39,1895.14,37.55,1915.85,73.42,1944.18,122.48,154.5,1044.26,177,1083.27c30,52,1717.46-1045.15,1740.66-1005C1946.31,127.89,162,1040.2,186.76,1083.05,212.32,1127.31,1899,37.42,1923.72,80.22c23.22,40.21-1747.86,956.18-1722.35,1000.35,24.89,43.12,1698.52-1029.8,1719.8-992.93,20.67,35.79-1738.54,944.53-1710.56,993C233.26,1119.87,1891.07,43.57,1920,93.72c24.5,42.43-1724.79,951.52-1702.93,989.39C245.28,1131.94,1899.48,61.57,1921.22,99.23c21.6,37.42-1719,944.82-1696,984.66,25,43.36,1673.13-1015.39,1694.52-978.34,23.48,40.66-1703.1,937.78-1680.84,976.34,22.93,39.72,1655.5-1011.66,1679.69-969.77C1947,161.28,223.06,1035.75,249.4,1081.36c26.79,46.41,1651-1002.15,1672.16-965.43,20.35,35.25-1695.28,918.63-1666.71,968.12,26.86,46.52,1638.14-1000.92,1662-959.56C1944.3,172,245,1039.44,269.43,1081.84c19.77,34.24,1620.72-1000.67,1648.84-952C1944.81,175.85,255,1046,276.72,1083.6c20.38,35.3,1617.2-988.77,1641.05-947.46,26.72,46.28-1646.06,903.42-1623,943.31,24.4,42.25,1608.06-975.54,1628.46-940.2,23.73,41.1-1645.9,906.89-1624.55,943.88C318,1116.59,1895.81,114.67,1915.88,149.42c27.68,48-1625.42,892.3-1603.1,931,26.71,46.26,1585.68-973.27,1610.7-929.94,24.78,42.92-1631.36,885.8-1604.66,932,27.22,47.16,1580.08-959.15,1600.39-924,19.51,33.79-1612.72,876.26-1586.3,922,22.56,39.06,1559.72-955.81,1583.67-914.33C1943.21,212.34,321,1045,342.07,1081.41S1897.89,139.18,1916.94,172.16c18.11,31.37-1585.39,867.89-1562.11,908.2C380,1124,1897.66,134.53,1921.51,175.84c23.63,40.93-1578,869.81-1557.65,905C383.6,1115.05,1900,141,1922.92,180.74,1949.19,226.24,349,1033.39,375.6,1079.41c21.54,37.3,1524.84-927.08,1545.07-892,23.48,40.67-1558.46,854.28-1536.22,892.8C406.53,1118.4,1901.71,155.33,1922.86,192,1944.4,229.28,361.29,1038,387.61,1083.6,410,1122.31,1897,159.21,1919.89,198.94c21,36.4-1542.05,849.93-1522.26,884.2,19.58,33.91,1506.86-912.26,1525.16-880.56C1940.57,233.38,381,1039.78,406.49,1084,428,1121.23,1896.14,178.11,1916,212.48c24.29,42.06-1520.75,830.42-1497.69,870.36,23.51,40.72,1477.85-902.41,1499.14-865.52,19.12,33.12-1513.59,822-1488.48,865.53,25.62,44.38,1471.11-899.67,1492.9-861.93,19.09,33.08-1499.62,826.8-1480.36,860.16,19.45,33.69,1451.07-893.43,1475.17-851.69C1935,261.12,427.9,1038.21,452.48,1080.78,471.25,1113.3,1905,202.08,1922.37,232.14c23.14,40.09-1485,810.33-1462.18,849.84C477.54,1112,1898.48,194.25,1923.3,237.25,1945.59,275.85,449.54,1053.73,467,1084c18.53,32.08,1432-876.36,1453.5-839.17,22,38-1463.95,801.22-1442.38,838.59,24.49,42.41,1419.43-863.72,1438.57-830.56,20.41,35.34-1448.43,797.91-1429.12,831.36,20,34.71,1409.71-861.7,1430.4-825.85C1939.13,295,477.25,1042,500.79,1082.8,519.14,1114.58,1901.67,232,1919.85,263.51c19.93,34.52-1421.61,782.9-1402.56,815.88,18.6,32.23,1380.16-839.95,1398.83-807.61,19.43,33.65-1417.3,770.74-1394.09,810.94,22.63,39.2,1380.68-844.07,1401-808.87,20,34.68-1407.11,769-1385.81,805.87C557,1114,1897.08,249.74,1916.51,283.4,1940,324,518.12,1041.8,541.76,1082.76c19.44,33.66,1363-831,1382.07-797.93,16.1,27.87-1396.57,757-1372.87,798.05C567.76,1112,1898.84,255.59,1920.1,292.41c22.89,39.66-1374,751.75-1353.43,787.34C582.36,1106.93,1906.45,268.07,1923,296.69c18,31.17-1372.18,749.26-1351,785.87,19.49,33.76,1324.61-812.71,1345.37-776.76,16.49,28.56-1355.9,746.66-1337.87,777.88,15.62,27,1314.81-810.52,1337.07-772,18.59,32.2-1340.23,737.81-1322.12,769.19,18.46,32,1311.32-797.53,1328.83-767.2,19.69,34.09-1344.79,735.38-1324.72,770.15,19,32.91,1302.68-801,1323.86-764.33,17.24,29.85-1332.42,726.79-1311.31,763.35,17.45,30.22,1289.46-780.26,1305-753.42,19.61,34-1305.95,724.75-1290.66,751.24C643.33,1111.84,1904,305.59,1920,333.25c22.24,38.53-1301.56,715.12-1283.3,746.74,21.58,37.38,1269.83-767.79,1284.84-741.79,16,27.63-1299.7,715.36-1282,746,21.76,37.68,1267-771.93,1284.53-741.62,15,26.05-1289.89,712.13-1273.1,741.21C671,1118.54,1903.75,314,1923.9,348.84c18.45,32-1273.29,700.58-1255.67,731.09,21.3,36.9,1235.11-760.39,1255.59-724.92C1941,384.72,659.57,1048.42,677.65,1079.74c15.52,26.88,1220.9-746.42,1238.88-715.27,16.69,28.91-1245.36,688-1229.34,715.74,19.77,34.23,1216.24-741.54,1233.27-712,15.92,27.57-1242.13,688.6-1227.3,714.28,18.25,31.62,1210.41-745.2,1230.49-710.42,18.71,32.42-1242.39,676.34-1222,711.62C716,1108.53,1907,354.6,1921.35,379.46c18.74,32.46-1221.14,678.29-1207.07,702.66,20,34.56,1188.44-732.89,1208.68-697.83,20,34.6-1213.87,670-1198,697.39,16.2,28,1177.47-719.55,1194.68-689.74C1935.8,420,716.45,1050.74,734.37,1081.78c19.37,33.55,1163.73-717.57,1183.52-683.3C1935.48,429,731.32,1052.42,747.43,1080.33c15.71,27.2,1155.79-709.09,1173.89-677.74C1939.18,433.52,739.4,1051.9,756.14,1080.9c19.91,34.47,1145.31-698.72,1161.54-670.61,17.3,30-1169.25,640.4-1151.57,671,13.64,23.63,1138.7-701.24,1157.67-668.38,16.84,29.15-1167.57,638.48-1149.87,669.14C788.85,1107.93,1904.28,393.14,1920,420.37,1934,444.65,765.21,1052.29,782.94,1083c19.55,33.86,1117.19-684.29,1134.2-654.83,16,27.65-1134.9,631.26-1121.83,653.91C812.67,1112.12,1904.12,407.44,1919,433.28c13.1,22.68-1128.09,617.56-1111.12,647,19,32.91,1099-673.81,1116-644.32,15.84,27.43-1124.8,611.54-1105.72,644.58,13.92,24.11,1087.37-666.84,1104.27-637.56,17.25,29.88-1114.4,613.39-1098.8,640.4s1085.48-655.87,1098.11-634c13.69,23.71-1103.32,610.2-1089.23,634.6,16.59,28.74,1073.34-658,1089.92-629.27C1939.56,484.3,831.4,1047.87,849.8,1079.75c18,31.15,1056.68-650.89,1074.35-620.28C1939.3,485.71,837,1053.64,853.94,1083c14,24.2,1049.74-637.72,1063.45-614,15.32,26.53-1063.65,586.54-1049.28,611.43,14,24.3,1039.21-631.26,1052.75-607.8,14.19,24.57-1063.77,582.92-1047.76,610.64,14.13,24.47,1025.94-631.73,1043-602.17,17.59,30.46-1048.75,577.12-1033.74,603.12,17,29.48,1023.83-624.71,1038.38-599.51C1934.89,509.23,883,1053,899,1080.69c14.57,25.23,1005.08-611.8,1018.72-588.16,12.65,21.9-1022.56,562.55-1007.81,588.09,12.73,22.06,996.56-609.17,1011.2-583.82,16.3,28.23-1018.2,555.14-1001.77,583.61,15.73,27.24,984.71-602.74,999.53-577.08S911.6,1062,924.08,1083.63c12.07,20.9,983.11-595.69,995.27-574.62,12.32,21.34-994.4,548.19-980.49,572.29C954,1107.55,1912.18,492,1924,512.52c11.6,20.08-990.3,549.07-977.8,570.73,13.87,24,962.36-583.63,974.49-562.62,12.65,21.91-973.81,533.24-958.6,559.59,14.64,25.36,940.29-579.48,956.14-552,15,26-963.82,524.71-947.67,552.7,13.28,23,936.76-578.08,952.88-550.15,11.21,19.41-958.14,529.39-945.4,551.46,13.23,22.91,930.27-573.7,946.12-546.24,15.07,26.11-949.34,528.26-938.15,547.64,16,27.64,919.35-561.06,932.46-538.36,13.77,23.85-931.26,515.71-919.14,536.7C1014.44,1108.09,1904.87,526.57,1919,551c11.79,20.43-925,503.89-909.31,531.06,13.29,23,894.05-547.72,907.71-524.06,12,20.86-907.35,500.24-894.51,522.48,11.25,19.49,884.72-544.36,899.26-519.19,13.16,22.8-903.81,502.27-893,521.06,10.66,18.47,875.19-536.15,888.55-513,11.87,20.56-893.91,492.32-880.87,514.91,14.5,25.11,870.14-529.57,881.92-509.17,11.07,19.18-876.63,482.25-863.59,504.83,10.79,18.7,858.19-519.13,868.44-501.39,11.48,19.89-874.83,480-861.28,503.47,10.77,18.64,845.37-514.17,856.67-494.6,14.2,24.59-860.68,475.31-848.79,495.9,11.38,19.71,838.19-512.17,850.42-491,13.5,23.39-851.56,473.75-841.17,491.75,14,24.15,825.06-509,839.2-484.51,13.72,23.75-838.63,466.14-828.18,484.24,14,24.24,815.69-493.33,825.39-476.53,11.3,19.58-819.23,451.88-807.41,472.36,9.71,16.81,801.66-487.61,812.39-469,12.52,21.69-818.21,456.72-808.82,473,11.38,19.7,799.22-485.43,809.61-467.43,12.22,21.17-804.93,445.57-794.29,464,13.53,23.43,784.11-479.23,795.6-459.34,13.47,23.34-800,438.68-787.55,460.34,11,19.06,772.69-470,783-452.08,12.67,21.93-788.22,430.51-774.92,453.55,12.2,21.11,765.56-471.15,778.18-449.29,12.49,21.63-781.3,429.8-769.77,449.77,12.17,21.09,759.67-459.66,768.79-443.87,12.51,21.67-764,425.35-754.88,441.16,9.69,16.79,748.23-452.64,757.16-437.15,10.14,17.55-763.36,423.62-753.47,440.76,11.31,19.58,735.05-453.64,747.72-431.7,9.16,15.88-746.4,410-734.81,430.05,10.89,18.86,727.05-442.42,736.86-425.42,10.46,18.12-737.82,404.26-725.68,425.3,9.15,15.83,719.13-436.6,728.4-420.54,10.4,18-732.47,402.1-721.22,421.59,8.47,14.67,704-431.79,715-412.79,11.75,20.35-710.31,392-699.94,409.91,8.38,14.52,694.47-428.51,706.4-407.84,11.47,19.85-707.33,393.34-698.34,408.9,8.28,14.33,687.87-418.24,697-402.42,10,17.3-694.08,385.35-685.16,400.8,10.78,18.67,675.12-415.41,686.22-396.19,9.58,16.6-690.38,383.09-681.11,399.17,9.44,16.35,666.32-406.48,675.75-390.15,9.84,17-678.4,374.64-668.64,391.55,11.53,20,659.61-406.88,670.89-387.33,10,17.3-667.8,365.61-656.91,384.48,9.25,16,648-393.23,656.29-378.91,9,15.58-655.4,358.93-644.36,378.05,9.38,16.25,637.92-389.12,646.93-373.51,10.65,18.44-649.29,361.34-641.14,375.45,8.78,15.21,632.61-386.51,641.82-370.55,8.33,14.43-645.32,352.83-634.49,371.59,10.14,17.57,621.94-380.4,631.17-364.41,9.86,17.08-625.39,346.7-616.83,361.52,8.77,15.19,609.61-371,617.84-356.71,10.24,17.73-619.37,345.25-611.43,359,8.64,15,601.85-369,611.16-352.86,9.88,17.11-610.63,334.21-600.39,352,8.11,14,591.52-358.39,598.83-345.73,7,12.11-595,329.84-586.74,344.13,10,17.26,582.83-355.54,591.07-341.25,8.14,14.09-596.14,329.48-587.51,344.43,7,12.1,578.29-351.15,585.77-338.19,8.49,14.7-582.66,324.55-574.93,337.94,8.39,14.53,570.94-345.76,577.92-333.66,7.61,13.18-574.55,320.31-566.86,333.62,8.13,14.09,556.87-341.11,565.36-326.42,9.23,16-563.68,311.82-555.24,326.44s548.4-337.57,557.47-321.86c8.55,14.81-554.12,306-545.56,320.81,6.87,11.9,535.18-330.38,544.44-314.33,6.62,11.45-539.5,300.72-532.12,313.5,8.21,14.21,526-319.19,532.71-307.56,8.72,15.1-535.73,294.57-527,309.68,7.83,13.56,518.62-318.24,526.76-304.13C1929,790,1397.79,1071,1405.21,1083.87c6.08,10.53,509.5-312.56,517.47-298.76,7,12.09-508.73,284.8-502.49,295.6,8.48,14.69,489.37-297.67,495.92-286.32,6.8,11.78-492.95,277.71-487.26,287.55,6.82,11.82,484.4-293.34,490.32-283.09,6.64,11.51-488.27,269.92-480.55,283.31,5.56,9.62,469.76-288.54,477.26-275.55s-471.09,261.25-464.15,273.26c5.92,10.25,461.15-279,466.69-269.44,7.56,13.08-461.91,259.5-456.26,269.29,7.4,12.81,450.4-272.83,455.94-263.23,7.18,12.43-452.82,251-445.78,263.18,5.56,9.64,442-269.77,448.34-258.85,5.36,9.27-445.06,249.95-439.77,259.12,6.18,10.69,434.65-268.54,442.27-255.34,6.72,11.64-440.86,246.23-435,256.38,5.06,8.77,422.71-258.12,428.8-247.57,6.83,11.83-426,236-419.28,247.64,5.58,9.65,411.28-253.5,418.23-241.47,7,12.22-414.37,231.84-408.75,241.59,5.44,9.41,407.88-251.94,415-239.6,4.81,8.33-409.91,230.45-404.62,239.61,5.65,9.8,398.25-244.32,404.48-233.52,5.4,9.35-406.23,224.44-399.34,236.39,5.61,9.72,392.76-239.1,398.11-229.84,6,10.38-386.31,214.69-380.28,225.14,5,8.73,371.89-227.08,377.24-217.8,6,10.47-373.9,211.62-369.55,219.14s363-223.47,369-213.06c5.1,8.83-369.33,206.29-364,215.5,5.8,10.06,360.06-219.8,365.22-210.86,5.67,9.83-354.66,199.46-349.83,207.82s344.68-210.5,349.65-201.88c5.36,9.28-347.6,192.89-341.86,202.82,4.87,8.43,337.39-205.93,342.22-197.57,4.26,7.39-344,191-338.43,200.67,4.25,7.36,332.48-201.5,336.61-194.34,3.79,6.57-330,185.23-325.32,193.34,5.21,9,320-196.5,325.09-187.69,4.9,8.48-320.41,180.61-316,188.16,4.07,7.06,313.25-190,317.22-183.15s-311.33,173.44-306.32,182.12c4.08,7.07,304.21-187.18,309.21-178.52,4.31,7.47-304.47,170.07-299.53,178.62,4.17,7.21,298-182.9,302.68-174.75,3.52,6.1-296.67,166.28-291.93,174.48,5,8.58,280.1-172.55,284.79-164.43,3.44,6-279.86,156.93-275.56,164.39,4.15,7.19,274.26-169.1,278.91-161,4.1,7.1-272.68,156.07-269.35,161.84,3.56,6.16,263.53-160.71,267.24-154.29,4,6.87-255.44,146.53-252.43,151.75,4.25,7.36,246.17-151.53,250.24-144.48s-247,139.49-243.06,146.4c3.11,5.38,247-149.35,249.93-144.29,3.39,5.87-243.42,139.08-240.16,144.73,3.49,6,231.85-141.29,235.07-135.71,3.82,6.62-229.41,132.08-226.72,136.74,2.86,5,230.74-139.72,233.56-134.84s-226.75,128.48-223.17,134.69c2.82,4.89,212.93-130.34,216.14-124.79,3.44,6-207.53,118.25-204.12,124.16,3.29,5.7,202.93-123.55,205.69-118.76,3.09,5.36-192.93,111.48-190.41,115.85,3.1,5.37,187.22-113.28,189.46-109.39,3.26,5.64-188.26,108.33-185.44,113.23,2.39,4.13,185.3-112,187.46-108.24,2.29,4-179.5,103.12-177,107.45,2.31,4,175-106.76,177.5-102.48,2.89,5-167.49,96.51-164.68,101.38,2,3.52,161.09-99.33,163.82-94.59,2.63,4.55-153.86,89.65-151.71,93.38,2.41,4.17,146.59-88.88,148.43-85.69S1776.83,1076.8,1778.7,1080c2.21,3.83,143.56-87.15,145.41-83.95,2.31,4-137,81.34-135.34,84.29,2,3.52,132.9-81.49,135-77.92,1.62,2.81-128.45,75.85-126.52,79.19,1.78,3.08,119.59-73.84,121.66-70.25,1.87,3.25-110.56,65.19-108.79,68.26,1.56,2.7,104.63-64.69,106.48-61.48,1.57,2.72-104.91,63.13-103.43,65.7s109.41-66.25,110.74-63.94c1.72,3-99.92,59.52-98.18,62.54,1.21,2.09,91.66-55.7,92.86-53.62,1.33,2.31-81.09,50-80.07,51.72s84-51.73,85.42-49.32-79,48.58-77.76,50.63,71.24-43.93,72.46-41.83c1,1.75-65.84,41.09-64.81,42.89s63.14-38.46,64-37c.65,1.13-53.08,35-52.37,36.28s54.37-32.9,55-31.77c.76,1.32-48.86,32.61-48.23,33.71s44.07-26.76,44.64-25.77c.47.82-34.3,24.78-33.77,25.69s36-22,36.47-21.06c.3.52-18.49,16.14-18.14,16.75s14.5-9,14.77-8.52-10.13,11.31-9.92,11.68,9.86-6.11,10-5.8c.08.14-2.56,6.65-2.46,6.83s4.49-2.66,4.52-2.61"/><polyline class="cls-2" points="0 1080 691.65 680.49 691.65 417.59 691.65 261.28 691.65 109.7 691.65 0"/><polyline class="cls-2" points="691.65 680.34 1567.86 680.34 1920.01 680.34"/></g></svg>
