<svg xmlns="http://www.w3.org/2000/svg" viewBox="0 0 270.17 547.59"><defs><style>.cls-1{fill:#fff;stroke:#000;stroke-miterlimit:10;}</style></defs><g id="Layer_2" data-name="Layer 2"><path class="cls-1" d="M83.81,164.81q-2.62-.47-5.4-1.07c-1.85-.4-3.63-.83-5.34-1.26-.4-6.45,0-12.87-.42-19.31A51.23,51.23,0,0,1,72.78,132c.61-3.79,2.06-7.43,2.81-11.2,1.15-5.84.57-11.83.33-17.77-.14-3.28.13-7.11,3.11-9a12.38,12.38,0,0,1,4.9-1.36l7.66-1c3.47-.46,10.26-3,10.7-6.1,1.18-8.56,2.36-17.18,1.87-25.8a136.87,136.87,0,0,0-4.75-27,55.81,55.81,0,0,0-14.06-3.8,44.86,44.86,0,0,1,3.34-12.13c8.21-.53,16.26,2.11,24.48,2.56,5.63.3,11.26-.44,16.85-1.17l29.35-3.86c21.51-2.82,42.44-4.43,63.85-1.08,11,1.73,22.39,3.57,31.74,9.12a36.07,36.07,0,0,0-15.65,11.85c0-.19-.29.57-.29.38a273.89,273.89,0,0,0-46-4.5c-7.79-.09-15.82.25-22.92,3.15-3.65,1.49-7.38,3.7-11.32,3,0,17.16-.36,34.37-.31,51.54,4.6-.38,10.2.48,14.73,1.27,3,.52,6.09,1.38,8.15,3.41,2.24,2.22,2.82,5.39,3.26,8.37A333.62,333.62,0,0,1,188.15,141c.15,5.9.13,11.79.14,17.7a5.09,5.09,0,0,1-.53,2.77,2.24,2.24,0,0,1-2.64,1c-22.28,1.36-36.42,3.07-46,4.74,0,0-15.12,2.64-27.44,1.53-3.57-.32-7-.84-7-.84-2-.3-2.35-.41-5.91-1-5.09-.91-7.69-1.37-10.4-1.6a26.82,26.82,0,0,0-6.59-.1,19.81,19.81,0,0,0-7.45,2.72L41.94,187.46c-10.42,6.3-21.46,13.29-25.77,23.93A27.22,27.22,0,0,0,15,215.22a38.2,38.2,0,0,0-.93,13.66c1.43,13.7,5.95,27.45,4.17,41.12-3.25,24.88,5.35,50.34,6.38,75.37.93,22.43-.06,44.82.24,67.27.26,18.73,0,37.45,0,56.18,0,7.72.23,16,5.17,22.28,2.6,3.33,5.55,8.84,9,11.52,12,9.37,24.55,19,39.94,22.46,7.16,1.59,14.6,1.73,22,1.86l22.86.41c18.14.33,36.82-1.06,54.86-2.79,6.45-.62,13-1.25,19.12-3.1,7.51-2.25,14.22-6.23,20.82-10.17,6.3-3.76,12.77-7.7,16.87-13.42,5-7,5.82-15.65,6.5-23.93.5-6.1.88-12.69-2.75-17.86,1.17-24.14,2.08-47.61,3.25-71.75,1.54-31.66-2.88-63.32,2-94.7,4.08-26-.34-52.3,2.11-78.45a11,11,0,0,0-.56-5.55,11.66,11.66,0,0,0-3-4.18c-4.06-3.85-9.35-5.37-10.58-6-1.6-.89-3-1.84-5.74-3.73-6.4-4.38-8.68-7-13-10.35-3.27-2.57-8.14-5.29-17.89-10.74-5.75-3.22-10.55-5.77-13.84-7.48"/><path class="cls-1" d="M246,215c-38.59,21.89-72.07,29-97.32,30.65-11.76.79-37.62,1.47-70.47-7.66a259.68,259.68,0,0,1-62.08-26.82"/><path class="cls-1" d="M102.29,85a60.07,60.07,0,0,0,15.38,7,54.1,54.1,0,0,0,19.63,1.75,59.71,59.71,0,0,0,21.22-6.14"/></g></svg>
