<svg xmlns="http://www.w3.org/2000/svg" viewBox="0 0 199.16 644.23"><defs><style>.cls-1{fill:#fff;stroke:#000;stroke-miterlimit:10;}</style></defs><g id="Layer_2" data-name="Layer 2"><path class="cls-1" d="M34.46,151c12.46-10.33,27.26,5.47,64.05,3,16.32-1.09,28.38-5.2,52.32-3,6.75.62,10.13.94,12.81,2,7.07,2.82,22.59,12.84,25.63,72,1.79,35-2.68,50.11-6.41,97-2.08,26.16-2.52,44.51-3.2,73-1.53,63.62,2,66.7,0,122-1.24,33.54-4.27,79-4.27,79s-8.24,11.94-12.82,17c-12.33,13.66-32.9,15.92-42.7,17a94.41,94.41,0,0,1-41.64-5,98,98,0,0,1-34.17-20c-5.07-4.46-8.17-7.24-10.67-12-5.21-9.89-2.77-18.74-1.07-31,1.83-13.26,1.58-24.51,1.07-47-.4-17.55-2-17.33-3.21-38-1.73-29,1.29-30.55,0-54-1.63-30-6.57-27.69-8.54-60-1-17,.33-17.59-1-50.1-.27-6.56-.77-18.79-1.89-34.86C18,267.18,17.61,263.42,16,242.26c-1.53-19.6-2.29-29.47-1.89-33.1,0-.3.19-1.56.44-3.29,1.75-11.62,5-20.65,10.87-34.66C30.88,158.16,33.64,151.64,34.46,151Z"/><path class="cls-1" d="M37.27,33.45c6.34-10.27,16.62-9.34,30.32-11.88a233.14,233.14,0,0,1,30.25-2.44c9.59.1,19.9,1.14,32.58,1.5,3.28.09,20.05,2.11,26.55,3.46.85.18,6.84,1.95,8,4.06s1.56,6.44,1.36,8c-1.53,12-.4,22.26-1.3,34-.57,7.38-.88,21.4-1,27.68-.18,7.74-.56,26.93-.25,29.46,1.15,9.46,2.42,20.25-2,23.53-5.36,4-15.66-.43-22.52-.35-1.26,0-16.67-.68-21.91,1.41-4,1.57-10.43,1.41-15.78,2.27a87.41,87.41,0,0,1-17.68.89,105.19,105.19,0,0,1-17.16-2.6c-4.39-1.27-17.38-4.54-20.14-4.64-5.14-.21-4.58,2.39-7.57.17-3.43-2.53-1.62-5.59-1.66-11.75,0-.38.33-16.25.77-21.54.33-3.92.41-20.88.4-24.93,0-8.55-.66-16.53-.4-23s.06-14.31.19-18.38C38.49,42,34.44,38,37.27,33.45Z"/><path class="cls-1" d="M14.72,215.18c11.89,3.32,25.84,8,38.21,9.09,15.3,1.31,41.92,2.13,53.63,1.35A209.27,209.27,0,0,0,143.37,220c18.19-4.12,28-9.85,44.07-16.13"/><path class="cls-1" d="M42.81,259.28c4.61-5,13.9,1.07,38.18,4.12,8.7,1.09,18.67,2.34,31.71,1.17,13.29-1.19,25.85-3.52,25.85-3.52,13.4-2.49,17-4.19,20-1.77,3.57,2.92,2.11,8.41,1.17,25.85-.44,8.26.68-7.81-.58,22.9-.88,21.28-1.22,24.36-1.77,37.59-.83,20.34-.34,19.89-1.17,37.6-1,20.63-1.5,18.46-1.76,31.12-.44,21-.66,31.56,0,37,.77,6.45,1.48,8.69,0,11.74-3.33,6.84-13,8.18-32.31,10.58-10.76,1.34-20.71,2.51-34.06,1.17-12.57-1.26-9.1-2.84-24.09-4.7-6.69-.83-11.79-1.06-14.09-4.7-2-3.19-.73-7.17,0-10,1.69-6.57,0-5.79-1.76-36.42-.94-16.48-.27-13.75-1.18-29.36-1.07-18.53-1.79-18.57-2.35-32.31-.71-17.49.47-17.18-.59-30.54-1-12.52-2.13-14.26-2.34-25.26-.19-9.49.63-9.9.58-21.73C42.16,263.65,40.61,261.66,42.81,259.28Z"/></g></svg>
