<svg xmlns="http://www.w3.org/2000/svg" viewBox="0 0 259.86 538.78"><defs><style>.cls-1{fill:none;stroke:#000;stroke-miterlimit:10;}</style></defs><g id="Layer_2" data-name="Layer 2"><path class="cls-1" d="M80.57,170.85q-2.61-.47-5.4-1.07c-1.84-.4-3.62-.83-5.33-1.26-.4-6.44,0-12.86-.42-19.3A51.22,51.22,0,0,1,69.55,138c.6-3.8,2.06-7.44,2.8-11.21,1.16-5.84.58-11.83.33-17.76-.13-3.29.14-7.12,3.12-9a12.38,12.38,0,0,1,4.9-1.36l7.65-1c3.48-.46,10.27-3,10.7-6.1,1.18-8.56,2.36-17.18,1.88-25.79a138.32,138.32,0,0,0-4.75-27A56.23,56.23,0,0,0,82.12,35a44.48,44.48,0,0,1,3.33-12.13c8.22-.53,16.27,2.11,24.49,2.56,5.63.3,11.26-.44,16.84-1.17l29.35-3.86C177.64,17.56,198.57,16,220,19.3c11,1.73,22.39,3.57,31.73,9.12a36.13,36.13,0,0,0-15.65,11.85c0-.19-.28.57-.28.38a274,274,0,0,0-45.95-4.5c-7.79-.08-15.82.25-22.92,3.15-3.65,1.49-7.39,3.7-11.32,3,0,17.16-.36,34.37-.32,51.54,4.6-.38,10.21.48,14.74,1.27,3,.52,6.09,1.38,8.14,3.41,2.25,2.22,2.83,5.39,3.27,8.37a333.6,333.6,0,0,1,3.48,40.15c.15,5.9.14,11.8.14,17.7a5.17,5.17,0,0,1-.52,2.77,2.23,2.23,0,0,1-2.64,1c-22.29,1.36-36.42,3.07-46,4.74,0,0-15.12,2.64-27.44,1.53-3.57-.32-7-.84-7-.84-2-.3-2.34-.41-5.9-1-5.09-.91-7.69-1.37-10.4-1.6a26.82,26.82,0,0,0-6.59-.1,20,20,0,0,0-7.46,2.72L38.71,193.5c-10.42,6.3-21.46,13.29-25.78,23.93a28.84,28.84,0,0,0-1.19,3.83,38.35,38.35,0,0,0-.92,13.66c1.43,13.7,5.95,27.45,4.16,41.12-3.25,24.88,5.35,50.34,6.39,75.37.93,22.44-.06,44.82.24,67.27.25,18.73,0,37.45,0,56.19,0,7.71.24,16,5.17,22.27,2.61,3.33,5.55,8.84,9,11.52,12,9.37,24.56,19.05,39.94,22.46,7.16,1.59,14.6,1.73,22,1.86l22.87.42c18.13.32,36.82-1.06,54.85-2.8,6.46-.62,13-1.25,19.12-3.1,7.51-2.25,14.22-6.23,20.82-10.17,6.3-3.76,12.78-7.7,16.88-13.42,5-7,5.81-15.65,6.5-23.93.5-6.1.88-12.69-2.76-17.86,1.18-24.14,2.08-47.61,3.26-71.75,1.54-31.66-2.88-63.32,2-94.7,4.07-26-.35-52.3,2.1-78.45a10.78,10.78,0,0,0-.56-5.55,11.52,11.52,0,0,0-3-4.18c-4.06-3.85-9.35-5.37-10.58-6-1.6-.89-3-1.84-5.75-3.73-6.4-4.38-8.67-6.95-13-10.35-3.26-2.56-8.13-5.29-17.88-10.74-5.75-3.22-10.55-5.77-13.85-7.48"/><path class="cls-1" d="M242.8,221.05c-38.59,21.89-72.06,29-97.32,30.65-11.75.79-37.61,1.47-70.47-7.66a259.45,259.45,0,0,1-62.08-26.82"/><path class="cls-1" d="M99.05,91a60.15,60.15,0,0,0,15.39,7,54.07,54.07,0,0,0,19.63,1.75,59.72,59.72,0,0,0,21.21-6.14"/></g></svg>
